<svg id="Lager_1" data-name="Lager 1" xmlns="http://www.w3.org/2000/svg" viewBox="0 0 274 274"><defs><style>.cls-1{fill:#276300;}.cls-2{fill:#e9ffde;}.cls-3{font-size:18px;font-family:AvenirNext-Bold, Avenir Next;font-weight:700;}.cls-4{letter-spacing:-0.02em;}.cls-5{fill:#71a900;}.cls-6{fill:#306300;}.cls-7{fill:#48290a;}.cls-8{fill:#88af43;opacity:0.35;}.cls-9{fill:#d4e5d1;opacity:0.61;}</style></defs><title>Green</title><circle class="cls-1" cx="137" cy="137" r="137"/><circle class="cls-2" cx="137" cy="137" r="121"/><text class="cls-3" transform="translate(65 198.36)"><tspan class="cls-4">L</tspan><tspan x="9.14" y="0">ogged In: G</tspan><tspan class="cls-4" x="112.41" y="0">r</tspan><tspan x="119.21" y="0">een</tspan></text><path class="cls-5" d="M200,145a58.52,58.52,0,0,1-2.9,6.78c-2.64,5.49-6.94,14.22-15.5,22.59-7.27,7.12-12.85,9.31-14.85,10-1.49.52-3,.92-3.22,1-2.32.59-5.84,1.28-13.24,1.29-2.1,0-2.55-.05-9.68-.32-4.06-.16-6,.31-9-.33a22.29,22.29,0,0,1-6.13-2.26c-3.9-2.05-6.47-4.77-9.37-8.39a92.21,92.21,0,0,1-11-16.46,70.37,70.37,0,0,1-5.81-14.2A63.72,63.72,0,0,1,97.33,135a46.44,46.44,0,0,1,0-13.23,43.16,43.16,0,0,1,5.17-14.53,45.43,45.43,0,0,1,10-11.94A38.53,38.53,0,0,1,127,86.93c6.17-1.8,10.44-1.07,22.6-1.61a25.73,25.73,0,0,1,2.58,0A28.31,28.31,0,0,1,157,86l.06,0c.31-.43.64-.86,1-1.3a56.11,56.11,0,0,1,4.52-5.16h3.55a5.55,5.55,0,0,1,.66,1.27l0,0a1.58,1.58,0,0,1-1.61.32l-1,1L162.21,84a13.46,13.46,0,0,0-1.83,2.43l-.42.47h.16c1,0,2.39-.05,4,0,4.75.15,10.24.33,16.14,2.59a31.93,31.93,0,0,1,19.05,19,49.22,49.22,0,0,1,3.55,15.5A53.44,53.44,0,0,1,200,145Z" transform="translate(-13 -13)"/><path class="cls-6" d="M155.76,91.13,149,84.67a31.67,31.67,0,0,0-.32-6.13,26.32,26.32,0,0,0-1.94-7.1,22.72,22.72,0,0,0-7.1-8.72c-.92-.69-4.38-3.2-12.59-4.84a62,62,0,0,0-20-.64l.32,1.93,1,5.81c.79,4.5,7.1,9.84,8.07,10.66a41.58,41.58,0,0,0,14.85,7.74A44.93,44.93,0,0,0,148,85l7.43,6.78.32.32Z" transform="translate(-13 -13)"/><path class="cls-7" d="M166.75,80.78l0,0a1.58,1.58,0,0,1-1.61.32l-1,1L162.21,84a13.46,13.46,0,0,0-1.83,2.43c-.09.15-.18.31-.26.47s-.11.22-.16.33a10.34,10.34,0,0,0-1,4.84l-3.23-1a7.75,7.75,0,0,1,0-1.61A8.25,8.25,0,0,1,157,86c.31-.53.66-1,1-1.6a34.38,34.38,0,0,1,4.19-4.84c.4-.41.74-.74,1-1l3.23-.32a3.13,3.13,0,0,1,.32.64C166.87,79.24,167.22,80.2,166.75,80.78Z" transform="translate(-13 -13)"/><path class="cls-8" d="M156.09,90.69A20.49,20.49,0,0,0,153,87.3a36.2,36.2,0,0,0-4.94-3.39c-1.16-.75-2.87-1.89-4.93-3.4l-.62-4.93V79.9c-1.4-.93-2.84-1.85-4.31-2.78s-2.69-1.67-4-2.46a26.68,26.68,0,0,0-.31-6.17c-.09-.53-.19-1-.31-1.54q0,1,0,2.16c0,1.74-.14,3.39-.31,4.93a37.88,37.88,0,0,0-5.85-4.32c-1.7-1-3.19-1.69-5.86-3.39-1.2-.76-2.16-1.41-2.78-1.85l3.4,3.09h-5.25l5.55.61a15.52,15.52,0,0,1,1.55.93,30.29,30.29,0,0,0,3.39,2.46c.26.15.48.25.61.31l-5.55,1.24a9.27,9.27,0,0,0,1.55.3,9.79,9.79,0,0,0,4.62-.61l7.71,4.93.61.31-6.47,1.23,8.63.31c5.74,3.65,10,6.6,11.72,8A21.78,21.78,0,0,1,153,89.46c1.36,1.42,1.91,2.6,2.46,2.46C155.68,91.87,155.94,91.61,156.09,90.69Z" transform="translate(-13 -13)"/><path class="cls-9" d="M118.64,113.73c4.18,5.3,16.71,1.63,17.75-2.59.46-1.83-1.28-3.72-2.9-5.48-.74-.8-7.13-7.75-12.27-5.17C117,102.62,115.8,110.13,118.64,113.73Z" transform="translate(-13 -13)"/></svg>