<?xml version="1.0" encoding="UTF-8" standalone="no"?>
<!-- Created with Inkscape (http://www.inkscape.org/) -->

<svg
   xmlns:dc="http://purl.org/dc/elements/1.1/"
   xmlns:cc="http://creativecommons.org/ns#"
   xmlns:rdf="http://www.w3.org/1999/02/22-rdf-syntax-ns#"
   xmlns:svg="http://www.w3.org/2000/svg"
   xmlns="http://www.w3.org/2000/svg"
   xmlns:sodipodi="http://sodipodi.sourceforge.net/DTD/sodipodi-0.dtd"
   xmlns:inkscape="http://www.inkscape.org/namespaces/inkscape"
   width="207.98705mm"
   height="56.263996mm"
   viewBox="0 0 207.98705 56.263996"
   version="1.1"
   id="svg8"
   inkscape:version="0.92.2 (5c3e80d, 2017-08-06)"
   sodipodi:docname="consupedia-logo-web-informed-beta.svg">
  <defs
     id="defs2" />
  <sodipodi:namedview
     id="base"
     pagecolor="#ffffff"
     bordercolor="#666666"
     borderopacity="1.0"
     inkscape:pageopacity="0.0"
     inkscape:pageshadow="2"
     inkscape:zoom="1.4800995"
     inkscape:cx="495.53792"
     inkscape:cy="152.94988"
     inkscape:document-units="mm"
     inkscape:current-layer="text3894"
     showgrid="false"
     inkscape:window-width="2560"
     inkscape:window-height="1377"
     inkscape:window-x="-8"
     inkscape:window-y="-8"
     inkscape:window-maximized="1"
     fit-margin-top="0"
     fit-margin-left="0"
     fit-margin-right="0"
     fit-margin-bottom="0" />
  <metadata
     id="metadata5">
    <rdf:RDF>
      <cc:Work
         rdf:about="">
        <dc:format>image/svg+xml</dc:format>
        <dc:type
           rdf:resource="http://purl.org/dc/dcmitype/StillImage" />
        <dc:title></dc:title>
      </cc:Work>
    </rdf:RDF>
  </metadata>
  <g
     inkscape:label="Layer 1"
     inkscape:groupmode="layer"
     id="layer1"
     transform="translate(-0.89972935,-0.53736092)">
    <g
       id="g65"
       transform="matrix(0.87358314,0,0,0.87358314,0.08817061,-0.56597459)">
      <path
         id="path10"
         d="m 54.913,22.089 c 0,7.597 -6.154,13.751 -13.752,13.753 -7.591,0 -13.754,-6.151 -13.754,-13.748 0,-7.604 6.163,-13.762 13.752,-13.762 7.6,0.002 13.754,6.156 13.754,13.757 z"
         inkscape:connector-curvature="0"
         style="fill:#ffd85c" />
      <g
         id="g30">
        <path
           id="path12"
           d="M 15.125,35.367 C 5.482,35.195 0.931,27.875 0.929,18.882 0.929,8.759 6.635,1.577 15.123,1.266 l -10e-4,2.542 c -2.086,0.439 -2.803,2.235 -2.801,4.071 v 20.779 c -0.004,1.848 0.713,3.642 2.801,4.159 z M 17.104,1.263 c 1.619,0.044 4.984,1.769 6.13,1.769 0.66,0 0.924,-0.274 1.183,-0.851 0.271,-0.557 0.57,-0.915 1.19,-0.915 1.399,-0.004 1.4,1.358 1.399,1.574 l 0.001,10.166 c -0.001,0.218 -0.001,1.58 -1.4,1.575 -0.918,0.005 -1.449,-0.738 -1.618,-1.57 C 23.235,9.46 21.175,4.901 17.104,3.808 Z m 8.627,23.933 c 0.835,10e-4 1.316,0.698 1.313,1.491 -0.095,3.587 -5.384,8.84 -9.94,8.68 v -2.549 c 3.374,-0.751 6.226,-2.969 7.183,-6.216 0.256,-0.752 0.521,-1.405 1.444,-1.406 z"
           inkscape:connector-curvature="0"
           style="fill:#49200d" />
        <path
           id="path14"
           d="m 56.079,16.044 h 0.062 l 1.881,3.362 v 10.147 c 0.534,4.203 2.689,2.886 2.689,4.316 -10e-4,1.053 -1.371,0.984 -1.756,0.985 l -3.824,-10e-4 c -0.363,10e-4 -1.741,0.071 -1.741,-0.984 0,-1.429 2.152,-0.113 2.688,-4.313 z M 73.575,26.732 73.573,34.856 68.569,34.858 56.273,13.666 C 55.748,12.728 55.566,12.223 54.462,11.849 53.89,11.653 53.45,11.52 53.45,10.785 c 0,-1.005 1.012,-1.007 1.702,-1.042 l 8.643,0.003 z M 71.621,15.808 c -0.004,-4.793 -2.747,-3.51 -2.745,-5.063 -0.002,-0.943 1.11,-1.001 1.442,-1.001 h 4.558 c 0.338,-10e-4 1.447,0.056 1.446,1.001 10e-4,1.55 -2.749,0.27 -2.745,5.063 l -0.003,8.16 -0.072,0.003 -1.881,-3.394 z"
           inkscape:connector-curvature="0"
           style="fill:#49200d" />
        <path
           id="path16"
           d="m 87.518,11.176 c -1.278,0.44 -2.391,1.386 -2.392,2.767 0.004,1.64 0.91,2.635 4.918,4.191 5.94,2.28 7.287,5.435 7.287,8.523 0,5.213 -4.336,8.607 -9.313,8.711 v -1.95 c 1.617,-0.512 2.983,-1.246 3.05,-3.091 0.08,-2.127 -2.419,-2.988 -4.025,-3.695 -4.23,-1.786 -8.153,-3.691 -8.153,-8.961 -0.001,-5.113 3.69,-8.266 8.629,-8.446 v 1.951 z m -8.629,16.163 c 0,-0.708 0.134,-1.646 1.071,-1.647 0.669,0.005 1.14,0.536 1.235,1.106 0.479,2.688 2.366,6.005 5.304,6.622 v 1.945 C 83.594,35.291 82.95,34.118 81.736,34.12 80.671,34.118 80.76,35.225 79.93,35.231 78.888,35.228 78.887,33.983 78.888,33.805 V 27.339 Z M 96.423,16.48 c 0,0.781 -0.136,1.611 -1.116,1.612 -0.8,-10e-4 -1.116,-0.629 -1.214,-1.302 -0.369,-2.489 -2.442,-5.033 -5.064,-5.61 V 9.231 c 2.119,0.034 4.364,1.306 4.741,1.308 0.866,0 0.795,-1.2 1.675,-1.201 1.037,0.001 0.977,1.148 0.977,1.409 z"
           inkscape:connector-curvature="0"
           style="fill:#49200d" />
        <path
           id="path18"
           d="m 112.509,35.369 c -2.653,-0.003 -4.71,-0.038 -7.018,-1.32 -3.031,-1.675 -3.432,-2.948 -3.432,-4.627 V 13.495 c 0,-1.235 0.033,-1.436 -1.143,-1.81 -0.437,-0.13 -0.737,-0.444 -0.738,-0.903 0.003,-0.979 1.113,-1.038 1.24,-1.038 l 9.509,-0.003 c 0.132,0.003 1.24,0.063 1.238,1.043 -0.002,0.455 -0.307,0.772 -0.733,0.901 -1.182,0.374 -1.142,0.573 -1.14,1.812 l -0.002,16.157 c 0,0.333 -0.31,2.978 2.22,3.729 z m 6.008,-20.331 c -0.536,-4.191 -2.691,-2.882 -2.692,-4.325 0.003,-1.044 1.381,-0.968 1.753,-0.969 l 3.826,10e-4 c 0.375,-0.003 1.754,-0.081 1.754,0.967 0,1.444 -2.167,0.136 -2.693,4.329 l 0.002,12.666 c -0.27,5.542 -4.265,7.559 -6.442,7.588 l 10e-4,-1.978 c 3.082,-0.94 4.286,-2.69 4.49,-5.683 z"
           inkscape:connector-curvature="0"
           style="fill:#49200d" />
        <path
           id="path20"
           d="m 127.187,13.492 c 0.004,-1.233 0.024,-1.433 -1.143,-1.809 -0.424,-0.13 -0.737,-0.442 -0.737,-0.902 0,-0.976 1.112,-1.039 1.246,-1.037 l 8.854,-0.003 v 21.355 c 0,1.243 -0.021,1.449 1.15,1.813 0.427,0.13 0.738,0.438 0.74,0.897 0,0.983 -1.105,1.048 -1.248,1.048 l -9.495,10e-4 c -0.136,0 -1.248,-0.067 -1.247,-1.047 0,-0.462 0.315,-0.77 0.734,-0.9 1.173,-0.359 1.148,-0.569 1.145,-1.809 V 13.492 Z m 9.738,-3.747 c 3.188,-10e-4 5.07,0.327 6.648,1.238 2.484,1.479 3.461,3.698 3.461,6.501 0,2.838 -0.979,5.05 -3.464,6.524 -1.575,0.915 -3.456,1.248 -6.642,1.252 v -1.961 c 1.969,-0.358 2.076,-1.741 2.075,-3.381 l 0.002,-5.068 c -0.002,-1.521 -0.298,-2.891 -2.076,-3.168 z"
           inkscape:connector-curvature="0"
           style="fill:#49200d" />
        <path
           id="path22"
           d="m 150.708,9.741 h 8.849 v 25.115 l -8.849,-0.001 c -0.149,0.001 -1.24,-0.067 -1.242,-1.043 0.002,-0.465 0.291,-0.772 0.732,-0.905 1.157,-0.357 1.137,-0.569 1.136,-1.811 V 13.494 c 0,-1.232 0.023,-1.437 -1.138,-1.809 -0.441,-0.13 -0.729,-0.444 -0.73,-0.901 0.002,-0.981 1.093,-1.042 1.242,-1.043 z m 10.373,0.003 h 7.48 l -0.002,6.813 c 0.002,0.165 -0.028,0.805 -1.034,0.805 -0.573,0.002 -0.736,-0.327 -0.906,-0.831 -0.867,-2.726 -2.594,-4.377 -5.538,-4.845 z m 0.004,11.211 c 1.399,-0.376 2.039,-1.68 2.343,-2.962 0.166,-0.564 0.366,-1.096 1.075,-1.09 1.038,-0.004 0.866,1.188 0.864,1.469 l 0.004,7.257 c -0.002,0.266 0.174,1.477 -0.869,1.471 -0.708,0 -0.902,-0.531 -1.074,-1.11 -0.304,-1.271 -0.945,-2.584 -2.343,-2.954 z m -0.002,11.954 c 2.713,-0.339 4.793,-2.189 5.71,-4.859 0.228,-0.515 0.436,-1.056 1.038,-1.057 1.06,0 0.971,1.012 0.97,1.143 l 0.002,6.72 h -7.72 z"
           inkscape:connector-curvature="0"
           style="fill:#49200d" />
        <path
           id="path24"
           d="m 181.31,34.855 h -8.535 c -0.747,0 -1.577,-0.067 -1.58,-1.046 0,-0.465 0.295,-0.773 0.738,-0.9 1.176,-0.365 1.151,-0.571 1.15,-1.813 V 13.492 c -0.002,-0.498 0.044,-1.4 -0.587,-1.6 -0.666,-0.24 -1.302,-0.337 -1.3,-1.187 -0.002,-0.87 0.834,-0.964 1.509,-0.964 l 8.604,-10e-4 v 25.115 z m 1.495,-25.114 c 5.711,-0.072 10.484,3.897 10.875,12.56 0.383,7.885 -5.286,12.556 -10.875,12.555 l 0.002,-1.948 c 2.052,-0.275 2.148,-2.187 2.152,-3.452 l 0.001,-14.313 c -0.001,-1.271 -0.105,-3.183 -2.153,-3.457 z"
           inkscape:connector-curvature="0"
           style="fill:#49200d" />
        <path
           id="path26"
           d="m 206.364,31.096 c 0,1.243 -0.032,1.451 1.146,1.808 0.436,0.134 0.727,0.443 0.727,0.902 0,0.984 -1.107,1.05 -1.24,1.049 l -9.51,0.003 c -0.128,-0.002 -1.242,-0.07 -1.244,-1.051 0.004,-0.463 0.313,-0.771 0.737,-0.9 1.175,-0.357 1.159,-0.567 1.159,-1.807 V 13.495 c 0,-1.233 0.017,-1.436 -1.159,-1.81 -0.424,-0.13 -0.737,-0.447 -0.735,-0.901 -0.002,-0.983 1.116,-1.04 1.242,-1.04 h 9.507 c 0.134,0 1.245,0.057 1.245,1.04 0.002,0.455 -0.295,0.77 -0.73,0.901 -1.176,0.372 -1.145,0.573 -1.145,1.812 z"
           inkscape:connector-curvature="0"
           style="fill:#49200d" />
        <path
           id="path28"
           d="m 220.324,13.813 -3.988,14.546 c -0.687,2.592 -0.09,3.313 1.347,3.947 0.673,0.293 1.272,0.551 1.272,1.398 0.003,1.198 -1.348,1.15 -2.198,1.151 l -4.899,-10e-4 c -0.84,10e-4 -2.384,-0.04 -2.384,-1.271 0,-1.022 0.734,-0.986 1.672,-1.438 0.895,-0.474 2.028,-1.461 2.842,-4.472 l 5.101,-18.658 0.125,-0.003 z m 4.534,12.788 -6.201,0.003 0.598,-2.454 5.189,-10e-4 -4.287,-18.773 0.545,-2.298 9.407,-0.003 6.368,26.855 c 0.244,1.198 0.29,1.993 1.48,2.51 0.602,0.252 1.055,0.552 1.057,1.319 0,1.146 -1.527,1.097 -2.338,1.099 l -10.57,-0.002 c -0.853,0 -2.091,-0.08 -2.091,-1.185 0,-0.678 0.255,-0.896 0.806,-1.198 1.102,-0.638 1.287,-0.932 0.896,-2.58 z"
           inkscape:connector-curvature="0"
           style="fill:#49200d" />
      </g>
      <path
         style="clip-rule:evenodd;fill:#49200d;fill-rule:evenodd"
         d="m 49.057,27.855 c -0.661203,0.231531 -1.333165,0.670205 -1.585866,-0.264122 -0.841684,-0.56217 -1.251907,-2.525786 -1.580358,-2.870625 0.716115,-0.01874 0.992936,1.509602 1.669932,2.179443 -0.01292,1.870934 2.118001,0.01736 2.620307,-0.675635 0.606788,-0.38413 -0.234111,-0.917876 -0.289087,-1.132341 -0.706356,1.061211 -0.995102,-0.261552 -1.408869,-0.868874 0.783642,0.475266 1.76588,1.183566 2.880262,0.861289 0.485407,0.330406 0.338482,0.967545 0.734679,0.510865 -0.04842,0.617128 0.06913,2.945373 0.549425,1.342844 0.133918,-0.612524 1.210567,-2.747531 1.091321,-1.343637 -0.210783,0.773047 0.224654,-0.264894 2.54e-4,0.575793 -0.235815,0.718934 -0.313519,1.029112 -0.02585,0.09504 1.033249,-2.794793 0.904237,-6.080089 -0.147168,-8.900197 C 53.003148,15.879219 52.194441,14.46563 51.095,13.312 c 0.277033,0.576607 -0.472946,-0.679863 -0.493586,-0.561216 -0.514741,-0.51067 -1.138222,-0.966993 -0.643824,-0.391069 -0.08065,-0.200014 -0.935467,0.07151 -0.108371,0.577478 -1.395656,-0.718923 1.405168,1.823914 0.233002,0.756584 -0.483818,-0.791351 -0.857739,-0.321891 -0.568804,-0.150684 -0.976245,-1.169769 -0.103968,0.775497 0.565583,0.791907 0.643981,0.865197 -0.703319,-0.722051 -0.151,0.425 -0.079,0.448949 -0.762197,0.0029 -0.187632,-9.33e-4 -0.09811,-0.504928 -1.107739,-2.222305 -1.24597,-1.669437 -0.193829,0.661296 1.352059,1.669639 0.120954,0.92606 -0.401308,-0.186452 -0.718494,-0.354049 -0.461189,0.188633 -0.710114,-0.239843 -1.172199,0.06286 -1.774923,0.378089 0.003,-0.731047 -0.824926,-0.530129 -0.15724,0.108588 0.131515,0.302823 -0.914065,0.03622 -0.463126,0.647117 -0.467339,-0.0048 -0.549111,-0.28704 -0.36234,0.182282 -0.382096,-0.05793 -1.462572,-1.389871 -0.410747,-0.716952 1.540795,0.187068 -0.100472,-1.154384 -0.81467,-1.019541 0.06678,-0.09789 -0.999348,-0.08303 -0.202911,-0.246527 -0.553705,-0.303498 -0.606892,0.03955 -0.998309,-0.154756 -0.407341,0.472622 -0.848161,0.192828 -0.984897,0.843377 -0.514085,0.1283 -0.472575,0.663984 -0.782797,1.083423 -0.691564,0.489316 0.437153,0.134725 -0.307302,0.438995 -0.328314,0.114809 -1.152261,0.659376 -0.388901,0.606582 -0.594203,0.221297 0.02891,0.21076 -0.255584,0.597608 -0.117273,0.402594 0.623194,0.498932 0.8089,-0.03181 0.268753,0.391599 0.826407,1.874308 1.138684,0.515202 -0.09068,-0.323857 0.654427,-0.815597 -0.0056,-0.862031 -0.06623,-0.682421 0.648291,-1.226112 0.800849,-1.617884 1.036079,0.136852 -1.040372,1.395541 0.314017,1.786571 0.60123,-0.490054 1.702279,0.161674 0.448759,0.109344 -0.816418,-0.07937 0.295852,1.018482 -0.644,0.614 0.172973,1.07984 -0.616752,0.71768 -1.289,1.016 -0.682685,0.02676 -0.892293,-0.309334 -0.779,-0.722 0.270826,-0.56384 -0.446157,0.05206 -0.168903,-0.0083 -0.153941,0.489519 0.109178,1.068359 -0.697948,1.012049 -0.258299,0.765523 -1.321075,1.098061 -1.70153,1.340471 1.24773,0.476843 0.454592,1.590655 -0.686124,1.137132 -0.474248,0.656176 -0.345369,2.249506 0.915457,1.759078 0.830763,-0.555823 1.149724,-2.139212 2.400635,-1.85119 0.442529,0.44425 1.416552,1.204509 1.388017,1.451253 C 43.408357,21.739616 41.777747,21.825242 41.598,20.85 c 1.00858,-0.02122 1.412585,1.277572 2.051374,1.783686 -0.08417,-0.202233 -0.06397,0.723382 0.215867,0.194367 -0.114174,-0.535385 -0.118666,-1.069508 0.726318,-0.803598 0.396273,-0.204839 -0.111509,-1.636452 0.835036,-1.540334 0.03541,0.617681 1.095924,0.331164 0.520616,0.213616 -0.636191,-0.288817 1.298821,-0.643891 0.359258,0.106607 0.596725,0.234886 1.420997,1.172187 0.233688,1.089592 -0.661904,-0.540247 -2.119183,0.04576 -2.019185,0.638942 0.162739,1.212369 2.60313,-0.317219 1.690122,1.342214 -0.717423,0.851718 -1.916578,0.01115 -2.834094,0.06991 -0.120568,1.110564 -1.46053,-0.228475 -1.995016,-0.250376 0.397828,-1.309811 -1.287689,-0.593759 -2.004175,-0.572798 -0.674192,0.409739 -1.451152,-0.05506 -1.834341,0.854859 -0.19291,1.142524 -1.98821,1.695969 -1.304624,3.055442 -0.421509,1.074962 0.783656,1.899945 1.582386,2.439396 1.126139,0.224722 2.899263,-0.601259 3.501904,0.596473 -0.453596,0.917294 1.447408,1.752919 0.29704,2.656864 0.351452,0.950533 0.782197,2.438851 2.14212,1.713995 0.976806,-0.331169 1.556529,-1.110667 2.088527,-1.764515 1.36739,-0.267446 0.322629,-1.740225 1.266179,-2.34534 0.760906,-0.739386 1.709842,-1.371973 1.94,-2.474 z m 4.262,-0.496 c -0.292109,0.804473 0.07294,-0.370266 0,0 z M 33.155,32.63 C 31.225165,31.159722 29.648894,29.163302 28.851736,26.861825 28.774327,27.071877 28.162629,24.859378 28.589,26.242 c 0.216779,0.498335 0.24845,0.91741 0.49651,0.43953 0.141771,0.88914 0.0088,-0.354311 0.333554,0.414775 0.584304,0.608231 1.957705,1.263524 1.902798,2.230172 0.555429,0.04779 -0.0038,0.370635 0.702866,0.272724 0.545684,0.4696 2.388377,0.939461 1.364272,1.884799 0.319124,0.463638 0.29488,1.091993 -0.395,0.795 0.295622,0.349649 0.0015,0.14436 0.161,0.351 z m -4.801,-7.133 c -0.147663,-0.512298 -0.191783,-0.846398 0,0 z m -0.361,-1.878 c -0.340885,-2.728761 0.215965,-5.562076 1.558,-7.962 -0.499412,0.910224 1.243724,-2.114258 0.332158,-0.49002 -0.24439,0.432439 0.158752,-0.212123 -0.205428,0.474473 0.274877,-0.447011 0.803683,-1.153126 0.27127,-0.123453 -0.348843,0.348305 -0.502267,0.518981 -0.78182,1.083881 -0.283715,0.49935 -0.865715,1.563334 -0.61118,2.073119 0.113131,0.243775 -0.157928,1.494244 0.153256,0.469072 0.463287,-0.668012 0.305331,-2.137905 1.102418,-2.388278 0.221986,0.416263 -0.254673,0.863309 0.02833,1.028206 0.385965,-0.479157 0.540516,-0.892579 0.399306,-0.09623 -0.04237,0.649707 0.268005,1.108298 0.08269,1.143226 0.75283,-0.166872 -0.200768,1.190403 -0.842068,0.851571 -0.349329,0.539401 -0.862557,1.01252 -0.112366,0.362918 0.248741,-0.07068 -0.0661,0.644492 0.359064,0.775731 -0.57745,0.470317 -0.453123,0.283245 -0.285188,-0.10812 -0.563715,0.375288 -0.76936,1.015044 -0.976586,1.588487 -0.03983,-0.414036 -0.11853,0.978333 -0.268911,1.456415 0.112116,0.432381 0.120995,1.120359 -0.03394,0.258998 -0.0032,-0.440855 -0.19604,-0.414198 -0.169,-0.398 z m 1.6,-8.036 0.117,-0.205 z m 0.164,-0.302 0.015,-0.006 z m 0.398,-0.628 0.03489,-0.04296 z m 0.217,-0.305 c -0.375009,0.521765 0.858714,-1.105773 0.140791,-0.191116 z m 0.817,-1.034 c 0.133722,-0.17685 0.523637,-0.187695 0.0252,0.101689 C 30.93804,13.65226 30.833246,13.691216 31.189,13.314 Z m 0.383,-0.413 0.0778,-0.08196 z m 0.327,-0.325 0.18866,-0.18688 z m 0.198,-0.193 c 0.546248,-0.49837 0.36029,-0.326264 0,0 z m 0.429,-0.384 c -0.118778,0.145458 -0.891517,0.797891 -0.425,0.437 -0.774188,0.612349 -0.734097,0.806126 -0.143377,0.188825 0.567699,-0.447447 0.800516,-0.790961 1.333377,-1.117825 0.15611,-0.129421 1.202587,-0.713431 0.475,-0.368 0.869137,-0.375906 1.20137,-0.858552 0.267,-0.259 -0.756846,0.480012 -1.21701,0.88024 -0.881,0.643 -0.272675,0.210139 -0.393937,0.261227 -0.626,0.476 z M 41.69,10.22 c 0.222994,0.186062 0.05841,-0.09835 0,0 z m -0.015,0.34 c 0.889292,0.468791 0.882211,-0.506704 0.218,-0.162 -1.079962,-0.110287 0.814351,0.277739 -0.08015,0.156978 z m -0.955,0.249 c 0.174926,0.341186 0.253692,0.153737 0,0 z m 0.802,0.724 c -0.795812,-0.318736 0.378701,-0.47455 -0.356446,-0.438609 0.823071,-0.356125 -0.891796,-0.02366 -0.240784,-0.58156 0.326783,0.316866 0.550092,-0.275352 0.963872,0.361635 -0.288927,-0.0029 -0.162105,0.515297 -0.366642,0.658534 z m 0.264,-0.821 c 0.07212,0.143236 0.14515,-0.08544 0,0 z m 0.306,0.246 c -0.03613,-0.351392 -0.387591,0.196972 0,0 z m 0.116,0.324 c -0.6956,-0.378844 0.631107,-0.221103 0,0 z m 0.404,-0.426 c -0.06826,-0.19457 -0.08111,0.09512 0,0 z m 0.076,-0.045 c 0.115069,-0.121712 0.327361,0.01302 0,0 z m -0.151,-0.426 0.02902,0.01901 z m 0.405,0.014 0.165852,-0.03683 z m 1.69,-0.24 c -0.14425,-0.01537 0.04412,-0.04913 0,0 z m -0.182,0.089 c -0.555479,-0.0012 -0.109926,0.165261 0,0 z m 0.182,0.244 c -0.580326,-0.220633 0.513934,-0.389735 0,0 z m 0.195,0 -0.01678,-0.05116 z m 0.031,0.009 c 0.184729,0.323487 0.09664,-0.131127 0,0 z m 0.235,-0.47 c 0.254487,0.0317 -0.15142,-0.1095736 0,0 z m 0.101,0.062 c -0.155813,0.06773 -0.1808,-0.1215855 0,0 z m 0.057,0.042 c -0.160073,-0.0364 0.09667,-0.04677 0,0 z m -0.115,0.036 -0.01513,-0.05104 z m 0.092,0.024 c -0.139996,0.03854 -0.0061,-0.09492 0,0 z m 0.113,0.046 c -0.205993,-0.0049 0.0013,-0.07515 0,0 z m -0.006,0.051 c 0.03925,-0.09648 0.111438,0.09068 0,0 z m -0.033,-0.018 c -0.04409,-0.131886 -0.408496,-0.06329 0,0 z m -0.061,0.02 c 0.256231,-0.0068 -0.73667,-0.196046 0,0 z m -0.013,0.06 c -0.06187,-0.13222 0.236682,0.09075 0,0 z m -0.12,-0.043 c -0.283544,-0.122478 0.268029,0.02659 0,0 z m -0.029,0.076 c -0.02748,-0.09673 -0.06816,0.0317 0,0 z m 0.05,0.011 c -0.15386,-0.01007 0.0107,-0.117431 0,0 z m 0.031,-0.017 c -0.08677,-0.06118 0.117753,0.03285 0,0 z m 0,0.037 c 0.08541,0.0285 -0.05471,-0.0904 0,0 z m 0.118,-0.008 c 0.06838,0.07697 0.04132,-0.07551 0,0 z m -0.053,0.038 c 0.09803,-0.0627 0.05359,0.08903 0,0 z m -0.029,0.038 c -0.100867,-0.01718 0.02441,-0.08637 0,0 z M 45.054,10.46 c 0.03337,-0.119075 0.1324,0.137587 0,0 z m 0.422,0.064 c -0.08309,-0.222822 -0.262614,0.03211 0,0 z m 0.079,-0.002 c -0.678429,-0.03731 -0.225825,-0.30362 0,0 z m 0.1,0.059 0.05863,0.0357 z m 0,-0.021 c 0.140463,0.169568 0.152023,-0.117953 0,0 z m -0.127,-0.262 c 0.24507,0.372858 0.336761,-0.06284 0,0 z m -0.059,-0.052 c 0.18041,-0.104408 0.156793,0.188291 0,0 z m -0.004,-0.174 0.109941,0.03247 z m 0.208,0.148 c 0.258832,-0.145727 0.198707,0.346226 0,0 z m 1.617,0.645 0.100317,0.05099 z m -0.24,-0.323 c 0.02992,-0.0938 0.227991,0.16318 0,0 z m 0.608,0.088 0.08969,0.03778 z m 0.409,0.282 c 0.867512,0.524194 -0.676941,-0.688211 0,0 z m 0.067,0.05 c 0.338188,0.08707 0.161108,0.217334 0,0 z m 0.738,0.396 c -0.586341,-0.515871 -0.436379,-0.05644 0.119,0.09 z m 0.533,0.446 c -0.681781,-0.593171 -0.305316,-0.415294 0,0 z m -16.547,1.087 c 0.04521,-0.07229 0.219918,0.02485 0,0 z m -0.039,0.191 c 0.04352,-0.07699 0.0976,0.03785 0,0 z m -0.062,0.249 c -0.0019,0.06086 0.07467,-0.08981 0,0 z m -0.058,0.117 c 0.238014,-0.134723 -0.05627,-0.05071 0,0 z m 0.029,-0.013 0.03729,-0.02591 z m -0.057,0.033 c -0.06053,0.07055 0.07929,-0.02507 0,0 z m -0.067,0.131 0.04968,-0.04615 z m 0.115,0.169 c -0.02392,-0.09541 0.169232,-0.05871 0,0 z m -0.056,0.056 c -5.97e-4,0.16581 -0.133695,0.01494 0,0 z m 0.039,-0.003 c -0.06069,0.176659 0.140282,-0.122116 0,0 z m 0.024,0.102 c 0.01319,0.113754 0.08571,-0.06643 0,0 z m -10e-4,0.076 c 0.03393,0.05429 0.06228,-0.07644 0,0 z m -0.078,0.313 0.03803,-0.09051 z M 32.416,14.07 c -0.06813,0.0641 0.07621,0.02539 0,0 z m -0.022,0.362 c 0.556483,-0.145763 -0.321755,-0.508801 0,0 z m 0.024,0.164 c 0.04047,0.0527 0.07489,-0.09833 0,0 z m -0.057,0 0.06418,-0.02967 z m -0.079,0.082 c -0.02637,0.07194 0.09385,-0.03774 0,0 z m -0.159,0.236 0.04007,-0.03612 z m -0.116,0.26 0.02988,-0.01409 z m -0.043,0.241 c -0.0021,-0.120847 0.0638,0.01846 0,0 z m -0.013,0.092 c 0.07312,0.05631 0.01137,-0.108416 0,0 z m 0.056,0.348 0.05761,-0.06923 z M 32.003,15.85 c 0.09736,-0.0164 0.0076,-0.119956 0,0 z m 0.055,1.011 c -0.107485,-0.06757 0.114398,-0.06368 0,0 z m 0.148,-0.064 c -0.07622,-0.01194 0.09533,-0.06581 0,0 z m 0.037,-0.02 c 0.0671,-0.09714 0.07613,0.04667 0,0 z m 0.083,0.212 c -0.02556,-0.096 0.110664,-0.05598 0,0 z m 0.148,0.071 c 0.07517,-0.104169 0.04154,0.06413 0,0 z m 0.005,-0.086 c -0.07913,0.05404 0.08708,0.07913 0,0 z m 0.041,-0.005 c 0.0026,0.08841 0.114782,-0.03339 0,0 z M 32.917,16.2 c 0.07491,0.11329 0.09907,-0.05071 0,0 z m 0.159,-0.243 0.04704,0.05102 z m 0.246,-0.388 c -0.08609,0.258715 0.127592,-0.02884 0,0 z m 0.554,-0.269 0.0085,-0.03534 z m -0.086,0.018 c -0.181332,-0.132958 0.208764,-0.03831 0,0 z m 2.098,-1.763 c -0.03883,-0.110278 0.08937,0.01949 0,0 z m -0.406,0.213 c 0.287973,0.160033 0.748872,-0.603141 0,0 z m 0.692,-0.811 c 0.515793,-0.02536 0.04614,0.36539 0,0 z m 10e-4,-0.045 c 0.529843,-0.141635 0.267225,0.16835 0,0 z m 0.154,-0.084 c 0.0072,0.168554 -0.54982,-0.124597 0,0 z m 0.233,0.011 c 0.06679,-0.100179 0.04795,0.07549 0,0 z m 0.099,-0.409 c 0.452572,-0.145647 -0.119918,0.263337 0,0 z m 0.402,-0.099 0.03472,-0.0281 z m -0.072,0.04 c -0.02325,-0.08338 0.120246,-0.02669 0,0 z m 0.102,-0.261 c 0.432419,-0.08485 -0.18886,0.321798 0,0 z m -0.235,0.133 c 0.157665,-0.04837 -0.05164,0.182599 0,0 z m 0.323,-0.53 0.01868,0.193623 z m -0.237,0.123 0.014,10e-4 z m 0,-0.057 c -0.09327,0.08717 0.129592,-9.45e-4 0,0 z m 0.46,-0.366 c -0.02696,-0.113191 0.121535,-0.09169 0,0 z m -0.152,-0.036 c -0.108126,-0.03138 -0.02046,-0.108278 0,0 z m 0.064,-0.093 c -0.02471,-0.07836 0.131066,-0.04297 0,0 z m 0.241,-0.318 c -0.05779,-0.09624 0.172169,-0.07974 0,0 z m -0.043,-0.304 c 0.01383,-0.155152 0.204795,0.01498 0,0 z m 0.346,-0.477 c 0.0699,-0.05904 -0.08248,-0.03878 0,0 z m 0.096,-0.061 0.03286,-0.07621 z m -0.151,-0.002 c 0.09534,-0.1889371 0.04556,0.139202 0,0 z M 36.363,9.99 c 0.05952,0.065983 0.07066,-0.074314 0,0 z m -0.489,0.193 0.06045,-0.0123 z m -0.181,0.063 0.06806,-0.01099 z m -0.209,0.246 0.06413,-0.01364 z m 0,0.032 c -0.05857,0.11674 0.115051,-0.105845 0,0 z m -0.335,-0.034 -0.04568,0.102092 z m -0.921,0.488 0.013,-0.012 z m -1.596,1.143 c 0.954532,-0.594377 0.912188,-0.740344 1.806737,-1.317537 0.169891,-0.0459 0.822854,-0.426008 0.552263,-0.164463 0.557519,-0.236386 0.514818,-0.05813 1.005,-0.454 -0.240809,-0.05243 2.415439,-0.6937907 0.828,-0.264 -0.407338,0.215263 1.0531,-0.2690266 0.654464,-0.011222 1.123674,-0.043991 -1.988625,0.62764 -0.484963,0.271734 0.51263,-0.06504 -0.173128,0.284855 0.528267,-0.04674 0.17007,0.123704 -1.007849,0.637289 -0.09108,0.225748 0.549257,-0.4272392 1.464871,-0.143102 0.392316,0.09448 -0.26795,0.06122 0.331336,0.09612 -0.388605,0.211821 0.742682,-0.04844 -0.726741,0.732908 -0.122902,0.960954 -0.799495,-0.01322 -0.05586,0.570853 -0.543498,0.585224 0.485279,0.308264 -0.533145,0.109464 -0.02399,0.439001 -0.477783,0.05565 -0.933167,0.110089 -0.882925,0.333334 0.137509,-0.06386 0.916009,0.727081 0.191266,0.651208 -0.149704,-0.470867 -0.560708,-0.269212 -0.324272,-0.09107 -0.614947,0.246935 -0.01377,0.250203 -0.173681,0.317494 1.524812,-0.408583 -0.547857,0.852397 -0.837582,0.59241 -0.246444,0.62897 -0.811574,0.675275 -1.23112,0.889105 -0.216473,0.317903 -0.453554,0.756904 -0.622824,0.938231 0.02285,0.458118 -0.609717,0.884027 -0.490678,0.386722 C 31.86381,16.958249 32.015909,16.08826 32.006,15.953 c 0.515379,-0.681637 -0.348227,0.134634 0.150616,-0.503451 -0.172236,-0.06926 -0.09272,-0.129737 -0.0416,-0.259287 -0.06379,-0.272684 0.623256,-0.418986 0.0804,-0.322244 0.3213,-0.230045 0.28317,-0.188971 0.573003,-0.682999 -0.51485,0.04533 0.478388,-0.605765 -0.05941,-0.506019 -0.300323,0.21468 0.285275,-0.602763 0.249832,-0.959726 0.08339,-0.475956 -0.987988,0.120664 -0.32542,-0.413282 0.185934,-0.198083 0.408091,-0.05597 -0.0014,-0.184992 z m -0.085,0.174 0.07089,-0.0296 z m -0.099,0.056 c 0.06426,-0.103243 0.08946,0.03559 0,0 z m -0.24,-0.07 0.07224,-0.06069 z m -0.811,0.828 0.05789,-0.08065 z m 0.28,-0.129 0.09363,-0.08183 z m -1.948,2.373 0.01675,-0.0318 z m 11.293,14.496 c 0.100121,-0.231609 0.166362,0.135388 0,0 z m -6.144,-2.468 c -0.0098,0.132076 0.167977,0.06814 0,0 z m 0.135,-0.161 c -0.06242,0.08905 0.08654,0.0069 0,0 z m -0.191,-0.103 c 0.03348,0.08502 0.0711,-0.04072 0,0 z m -0.071,-0.006 0.05647,0.02656 z m -0.094,-0.053 c 0.07399,-0.02516 -0.03935,0.09912 0,0 z m -0.082,-0.032 c 0.07543,0.102973 0.105896,-0.15993 0,0 z M 34.046,22.51 c -0.01484,-0.128015 -0.112457,0.05144 0,0 z m 0.064,-0.052 c -0.02241,-0.118195 -0.131204,0.07685 0,0 z m 0.1,-0.034 0.02837,0.03011 z m 0.24,0.256 c 0.210578,0.092 -0.0061,-0.101621 0,0 z m 1.529,1.19 c 0.146101,-0.113759 0.09204,0.193753 0,0 z m -0.1,0.962 c -0.07535,-0.08298 0.05996,-0.120478 0,0 z m -0.025,0.145 c -0.08079,0.04907 0.09025,0.0654 0,0 z m 0.227,-0.026 c -0.205691,-0.123556 0.261043,-0.107428 0,0 z m 0.205,0.061 c -0.203827,-0.133771 0.176766,-0.125528 0,0 z m 0.326,-0.24 c 0.01328,-0.139778 0.162036,0.01894 0,0 z m -0.138,0.167 c 0.105031,-0.248118 0.256476,0.02377 0,0 z m 16.825,2.341 0.005,0.013 z m 0.345,-0.862 0.01711,-0.04034 z m -0.159,0.482 0.03055,-0.05563 z m -0.018,0.082 0.009,-0.018 z m 0.157,-0.414 0.01,-0.01 z m -0.014,0.056 -8.07e-4,-0.03743 z m -0.464,1.107 -0.0034,0.0073 z m 0.05,-0.097 0.007,-0.026 z m -0.002,-0.045 c 0.04133,0.05974 -0.103197,0.05144 0,0 z m 0.115,-0.417 0.0017,0.0083 z m 0.015,-0.027 0.0051,-0.01909 z m 0.019,-0.117 0.002,0.024 z M 51.027,13.22 c -0.341319,-0.358878 0.308505,0.307805 0,0 z m -1.387,-1.325 0.05954,0.03642 z m 0.264,0.237 -0.0288,-0.0289 z m -0.208,0.088 c 0.113767,-0.0059 0.106675,0.145403 0,0 z m -0.014,-0.073 c -0.06108,-0.06697 0.0883,0.04801 0,0 z m -0.088,-0.034 0.04921,0.02687 z m -0.163,-0.139 c 0.04852,-0.08487 0.08026,0.0697 0,0 z m -0.493,-0.237 0.0514,0.0502 z m -0.088,0.331 c 0.0583,-0.04725 0.125038,0.111087 0,0 z m -0.055,-0.012 c 0.240212,0.02405 -0.02383,0.07139 0,0 z m 0.64,0.398 0.05963,0.03062 z m -0.061,0.032 0.05721,0.03132 z m 0.14,0.119 c -0.02513,-0.08428 0.08863,0.0417 0,0 z m -0.07,0.003 c -0.101681,-0.03491 0.03134,-0.0773 0,0 z m 0.115,0.1 c -0.0098,-0.07138 0.08761,0.05791 0,0 z m -0.083,0.02 0.041,0.02249 z m -0.11,-0.07 c 0.104014,-0.0227 0.04192,0.08063 0,0 z m -0.058,-0.021 c 0.08394,-0.01299 0.0064,0.125046 0,0 z m -0.294,-0.338 -0.09834,-0.107207 z m -0.11,0.113 0.06936,0.04062 z m -2.267,-0.573 c -0.02374,-0.08772 0.133781,0.0061 0,0 z m -0.028,0.764 c 0.09812,-0.185034 -0.336307,-0.734867 0.401,-0.849 1.044172,-0.494729 -0.181251,0.503808 -0.103802,0.882522 l -0.139939,-0.03606 z m 0.34,0.809 c -0.36718,-0.09561 -0.519657,-1.031466 -0.03522,-0.632582 0.135016,0.436165 0.940381,1.032354 0.03522,0.632582 z m -0.194,-0.12 c 0.177298,-0.06203 0.142134,0.205037 0,0 z m 3.485,0.567 c -0.188328,-0.19156 0.06934,-0.06446 0,0 z m -0.96,-0.873 c -0.05632,-0.264372 0.265485,0.280803 0,0 z m -0.002,0.183 c -0.03902,-0.229337 0.218024,0.01878 0,0 z m -0.308,-0.325 0.07102,0.03557 z m -0.133,-0.075 c -0.03478,-0.145483 0.153355,0.05452 0,0 z m 0.081,0.178 c -0.188879,-0.08752 0.03136,-0.07554 0,0 z m -0.479,-0.091 c -0.302419,-0.370161 0.341359,0.03113 0,0 z m -0.444,1.003 c -0.597097,-0.227267 -0.231441,-0.464293 0,0 z m -0.56,0.387 c -0.08465,-0.06329 0.07775,-0.04419 0,0 z m -0.491,-0.083 c 0.06795,-0.0709 0.07099,0.0666 0,0 z m 0.983,-0.167 c -0.228896,-0.110044 -0.01072,-0.09667 0,0 z m -0.198,0.127 c 0.06361,-0.07828 0.153278,0.04618 0,0 z m -0.247,-0.065 c 0.07852,-0.03383 0.06288,0.11952 0,0 z m -4.163,1.146 c -0.08251,-0.08194 0.130042,-0.03288 0,0 z m -1.209,8.004 c 0.118658,-0.08135 0.03131,0.13433 0,0 z m 4.382,-9.265 c 0.373997,-0.7408 0.346582,0.557016 0,0 z m -3.456,-0.64 c 0.08506,-0.135705 0.228407,0.097 0,0 z m -0.189,0.01 c 0.08653,-0.04295 0.01709,0.120754 0,0 z m -0.022,0.1 c 0.07324,-0.104341 0.05723,0.129078 0,0 z m -0.094,0.055 c 0.159613,-0.160451 0.02975,0.217568 0,0 z m -0.163,-0.048 0.192436,-0.01224 z m 0.074,0.094 c 0.104348,-0.106484 0.119366,0.17496 0,0 z m -0.241,0.041 c 0.184742,0.08609 -0.09693,0.147035 0,0 z m -0.15,-0.029 c 0.143869,0.03178 0.02267,0.194926 0,0 z m -0.062,0.054 0.02028,-0.04668 z m -0.065,0.057 c -0.0252,-0.137425 0.138903,-1.48e-4 0,0 z m 0.033,0.027 c 0.08991,-0.184336 0.118556,0.14722 0,0 z M 42.03,13.76 c 0.168116,-0.154924 0.209081,0.123797 0,0 z m -0.114,0.194 c -0.158337,-0.298935 0.348176,-0.125434 0,0 z m 0.05,0.051 c -0.09911,0.0036 0.01548,-0.05666 0,0 z m -0.307,-0.014 c 0.03473,-0.203942 0.218893,-0.12464 0,0 z m -0.015,0.164 c 0.06036,-0.304526 0.447013,-0.07076 0,0 z m -0.045,-0.073 -0.02378,-0.0411 z m 0.006,0.038 c -0.09288,0.04086 -0.01349,-0.07845 0,0 z m -0.091,0.096 c 0.08439,-0.198729 0.161956,0.01887 0,0 z m -0.075,0.052 c -0.08838,-0.129426 0.182156,-0.04731 0,0 z m -0.051,0.011 c -0.08097,-0.06471 0.07023,-0.05949 0,0 z m -0.076,0.055 c -0.0369,-0.15569 0.119488,-0.01239 0,0 z m 0.073,0.428 c -0.07509,-0.05511 0.07613,0.0094 0,0 z m 0.007,0.062 0.05249,0.02208 z m -0.094,0.079 c -0.05024,-0.07215 0.12212,-0.04686 0,0 z m 0.015,0.038 c 0.08758,-0.165869 0.05468,0.0561 0,0 z m -0.077,0.101 c -0.12866,-0.04825 0.08061,-0.04362 0,0 z m -0.009,0.185 0.05033,-0.04198 z m -0.069,-0.012 c 0.11633,-0.172035 0.08718,0.06436 0,0 z m -0.038,0.096 c -0.01967,-0.09861 0.163798,-0.05187 0,0 z m -0.47,0.357 c 0.04952,-0.116798 0.14393,0.01416 0,0 z m 0.021,0.05 c 0.099,-0.148277 0.154795,0.07711 0,0 z m -0.08,0.041 c -0.147063,-0.05072 0.09369,-0.0575 0,0 z m 0.018,0.042 c 0.04768,-0.08979 0.05099,0.05023 0,0 z m -0.087,0.031 c 0.0076,-0.08916 0.09429,0.04931 0,0 z m -0.139,0.099 0.03008,-0.04538 z m -0.192,0.148 c 0.02618,-0.07972 0.08464,0.07052 0,0 z m -0.077,0.047 c -0.0078,-0.105161 0.104757,0.0406 0,0 z m -0.039,0.082 c 0.03972,-0.08893 0.06268,0.09127 0,0 z m -0.003,0.069 c -0.05613,-0.03376 0.07642,-0.06004 0,0 z m -0.026,0.192 c -0.04881,-0.06935 0.121317,-0.04715 0,0 z m 0.032,0.031 c -0.08158,-0.02663 0.08139,-0.05234 0,0 z m 0.108,0.173 c -0.173042,-0.01394 0.106557,-0.09938 0,0 z M 40.148,16.8 c 0.101379,0.0022 -0.03228,0.104924 0,0 z m -10.13,3.413 c 0.434302,0.0749 0.755811,0.315642 0.601,0.004 0.06013,-0.37032 -0.281601,-0.670952 -0.188,-0.795 -0.230115,0.448174 -0.218924,0.513502 -0.413,0.791 z m -0.253,0.552 c 0.296653,-0.183406 -0.08907,-0.554275 0,0 z m -0.27,-0.248 c 0.242416,0.188643 0.08291,0.05014 0.03258,-0.08121 z m 0.109,-0.725 c 0.27372,0.431574 0.301612,-0.04725 0,0 z m 1.37,-5.896 c 0.545363,-0.231127 0.104404,-0.448693 0,0 z m -0.071,0.084 -0.02046,0.03933 z m 0.194,0.187 c -0.0503,-0.04622 0.115816,-0.06972 0,0 z m -0.021,0.131 c -0.01894,-0.105861 0.1428,-0.02939 0,0 z m 0.068,0.284 c 0.03856,-0.09282 0.04642,0.04417 0,0 z m 0.005,0.514 c 0.03386,0.07004 0.03598,-0.139949 0,0 z m 0.055,0.128 0.02263,-0.04346 z m -0.162,0.405 c 0.03417,0.06447 0.05035,-0.08995 0,0 z m -0.373,0.415 -0.002,0.007 z m -0.768,-0.931 0.01546,-0.03172 z m -0.155,0.435 0.0937,-0.165482 z m 0.899,0.44 0.03983,-0.03684 z m 0,0.21 c 0.08497,-0.09092 -0.05551,-0.05542 0,0 z m -0.003,0.031 -0.0166,0.07781 z m -0.182,0.346 c 0.09004,0.0545 0.06378,-0.134846 0,0 z m -0.04,-1.42 c -0.29352,-0.08894 -0.179424,0.564246 0,0 z m 0.011,0.017 c -0.04835,0.202553 0.156395,-0.124632 0,0 z m 0.032,-0.07 c 0.10337,-0.07325 -0.01143,-0.190116 0,0 z m -0.12,-0.228 c 0.144065,-0.07556 -0.01156,-0.09895 0,0 z m 0.09,-0.024 0.05412,-0.06737 z m -0.147,0.191 0.121034,-0.147084 z m 0.156,-0.106 0.06218,-0.07049 z m -0.19,0.206 0.02569,-0.04741 z m -0.033,0.051 c -0.0088,0.07851 0.04524,-0.08347 0,0 z m 0.101,1.543 c -0.06256,-0.492918 0.48187,-0.412362 0.293564,-1.165255 0.352219,-0.415168 0.07567,0.594268 0.363687,0.05613 0.476183,-0.267053 0.0414,-0.510811 0.03393,-0.581443 -0.156473,-0.24419 0.378488,-0.626673 0.101005,-0.536017 0.361002,-0.457683 -0.277836,0.125786 0.05284,-0.400522 -0.260899,0.212578 0.01832,-0.278796 -0.285023,-0.04929 -0.243766,0.266965 0.478282,-0.765667 -0.131362,-0.05559 -0.626446,0.927405 -0.169985,0.231029 0.07836,-0.170008 -0.579881,0.472826 -0.92456,1.532676 -0.231,0.669 -0.217563,0.521453 0.176064,0.433668 -0.196327,0.997204 0.530648,-0.229248 -1.089424,0.852955 -0.394773,0.62462 0.07051,0.238909 0.02915,0.504901 0.3151,0.611176 z m -0.283,-0.122 c 0.08334,-0.07469 -0.0771,-0.09735 0,0 z m -0.287,0.026 c 0.04415,0.08279 0.04844,-0.06144 0,0 z m -0.121,-0.725 -0.0045,0.106919 z m -0.048,0.064 -0.02797,0.08022 z m -0.363,0.772 c 0.451646,-0.276636 0.319913,-1.091989 0.03078,-0.100176 z m 1.186,0.027 c 0.04734,-0.07322 -0.08619,-0.09802 0,0 z m -0.038,0.104 c 0.15502,-0.137054 -0.173832,-0.09124 0,0 z m -0.388,0.33 c 0.131393,-0.06964 0.0052,-0.201808 0,0 z m -0.292,-0.778 c -0.06323,0.184474 0.120021,-0.0058 0,0 z m -0.1,0.094 c -0.04965,0.259328 0.138463,-0.149818 0,0 z m -0.394,0.45 c 0.20322,-0.185226 0.08447,-0.358291 0,0 z m 0.135,0.013 c 0.152586,-0.06008 0.07259,-0.400328 0,0 z m -0.195,0.51 0.03778,-0.0352 z m -0.287,0.887 0.03256,-0.03243 z m -0.004,0.085 c 0.09824,-0.02808 0.05873,-0.276141 0,0 z m -0.291,0.74 c 0.136787,0.05817 0.01599,-0.218185 0,0 z m 14.682,-2.083 c -0.242144,-0.150412 0.292869,-0.09941 0,0 z m 0.11,0.025 c 0.04523,-0.09027 0.06703,0.115707 0,0 z m -0.182,0.221 c -0.135104,-0.329378 0.418034,-0.18393 0,0 z m -0.402,-0.663 c -0.01166,-0.139396 0.101395,0.07205 0,0 z m -0.067,-0.059 c 0.04397,-0.201118 0.08738,0.139221 0,0 z m -0.053,-0.032 c 0.07846,0.0023 -0.01875,0.104735 0,0 z m -0.116,0.263 c -0.04414,-0.05508 0.105012,-0.01388 0,0 z m -0.047,0.064 c 0.05466,-0.154623 0.08979,0.0936 0,0 z m 0.164,0.265 c 0.06392,-0.05523 0.0095,0.09736 0,0 z m -0.081,0.416 c -0.162606,-0.252324 0.319831,-0.328889 0,0 z m -0.036,0.075 c -0.125317,-0.09164 0.168387,-0.05616 0,0 z m -0.306,0.169 c -0.07564,-0.25275 0.245919,-0.415716 0,0 z m 11.188,8.883 -0.0093,0.01442 z m 0.061,-0.22 -0.0175,0.07054 z m 0.061,-0.208 -0.01977,0.08785 z m 0.165,-0.766 0.01446,0.02698 z m 0.037,-0.12 4.24e-4,0.04712 z m -0.023,0.039 c 0.04394,-0.04944 -0.01321,0.159027 0,0 z m -0.048,-0.413 c 0.06593,0.0275 -0.0912,0.08615 0,0 z m -0.013,-0.045 c 0.05323,-0.04467 -0.0011,0.09493 0,0 z m -1.148,2.432 c 0.352958,-0.172959 -0.241041,0.886935 0,0 z m -7.921,-4.329 0.04187,-0.04658 z m 0.097,-0.085 0.02988,0.02128 z m -0.056,-0.054 c 0.0069,-0.08594 0.110616,-0.01139 0,0 z m -16.306,1.54 v -0.021 z m -0.017,0.042 v 0.016 z m -0.009,0.015 -0.004,-0.007 z m 0.054,-0.289 c -0.01126,0.162092 0.105518,-0.0186 0,0 z m 0.096,0.171 -0.01956,-0.13162 z m 0.059,0.21 -0.008,-0.08279 z m 0.072,0.16 -0.03271,-0.112978 z m 0.028,0.161 -0.02187,-0.08733 z m 0.113,0.137 0.01741,0.01767 z m 0.029,0.135 -0.002,-0.012 z m -0.021,0.09 c -0.04608,-0.131005 0.0665,-0.04235 0,0 z m -0.276,-0.358 0.05173,0.09204 z m 0.735,1.714 0.01,0.019 z m 0.113,0.101 0.04368,0.04548 z m -0.053,-0.035 0.04372,0.04698 z m 0.639,0.58 c 0.185035,0.04422 -0.06472,-0.232408 0,0 z m 0.11,-0.408 c 0.03488,0.17983 0.05581,-0.06332 0,0 z m -0.151,0.096 c -0.04245,0.14421 0.0672,-0.04883 0,0 z m 0.012,-0.056 0.01199,0.03899 z m -0.001,-0.055 0.009,0.024 z M 29.826,26.83 c 0.05948,0.139258 -0.0028,-0.173777 0,0 z m -0.048,-0.178 c 0.01,0.175636 0.117054,0.01064 0,0 z M 29.747,26.52 c -0.02785,0.125846 0.0936,0.04735 0,0 z m -0.018,-0.144 0.04342,0.05948 z m -0.034,0.019 c 0.0085,0.287414 0.08984,-0.03626 0,0 z m -0.049,-0.224 c 0.02055,0.09574 0.03015,-0.06046 0,0 z m -0.077,0.013 c 0.02995,0.190097 0.03277,-0.06529 0,0 z m -0.372,-0.261 c 0.02346,0.209079 0.288298,-0.0122 0,0 z m -0.414,-0.254 c 0.04693,0.193675 0.03786,-0.06858 0,0 z m -0.058,0.027 c 0.623871,0.638291 0.02782,-0.542913 0.139,0.067 z M 28.427,24.7 28.40699,24.609239 Z m 0.02,0.116 c -0.07907,-0.12184 0.103534,-0.06314 0,0 z m -0.144,0.181 c 0.045,0.09624 -0.04082,-0.160811 0,0 z m 0.235,0.398 c 0.456327,0.151669 -0.699532,-1.044282 -0.131746,-0.328232 0.0797,0.189381 0.173611,0.227734 0.131746,0.328232 z m 0.014,0.233 c 0.127924,0.299185 0.07535,-0.143679 0,0 z m 2.939,3.654 c 0.06511,0.115452 0.105499,-0.06726 0,0 z m -0.063,-0.054 c 0.04574,0.12377 0.09788,-0.0728 0,0 z m -0.078,0.074 0.03881,-0.04657 z m -2.757,-7.529 c 0.200572,0.0345 0.07303,-0.12165 0,0 z M 48.73,32.191 c 0.05374,-0.126542 0.144787,-0.05045 0,0 z m -0.286,0.146 c 0.07245,-0.138172 0.08628,0.07797 0,0 z m 0.748,-1.977 0.02299,-0.03304 z m -2.061,1.324 c 0.0015,-0.218086 0.07679,0.01367 0,0 z m 0.179,0.034 c -0.07305,-0.04455 0.08623,-0.03913 0,0 z m 0.066,0.072 c -0.008,-0.117004 0.114498,-0.03848 0,0 z m -0.574,1.426 C 46.466957,32.679272 47.984765,31.4094 48.075679,31.801317 47.702039,32.28606 47.427658,33.002873 46.802,33.216 Z M 36.384,15.827 c -0.80044,-0.04074 -0.569065,-0.41564 -0.45402,-0.615947 -0.551275,-0.0624 0.231209,-0.333023 0.269206,-0.01755 0.265996,-0.556238 1.616916,-0.03646 0.522621,0.462186 C 36.583706,15.819141 36.473258,15.615655 36.384,15.827 Z m 1.708,0.339 c -0.01206,-0.101164 0.06791,0.06336 0,0 z m 0.112,-0.019 c -0.181637,-0.04524 0.03878,-0.08161 0,0 z m -0.03,0.062 c -0.214119,-0.208811 0.120244,-0.0019 0,0 z m -0.01,0.114 c 0.08541,0.02887 -0.07671,0.111983 0,0 z m 0.927,0.287 c -0.0555,-0.163733 0.113894,0.0022 0,0 z m -0.033,0.025 c -0.07397,-0.02363 0.04733,-0.08288 0,0 z m 0.027,0.088 c -0.245141,-0.01368 0.129596,-0.164242 0,0 z m -0.965,2.28 c -0.990199,0.687258 -0.615321,-0.68508 -0.134982,-0.828957 0.520122,-0.01022 0.07302,0.559872 0.134982,0.828957 z m 3.791,-0.899 c 0.205425,0.03896 -0.06405,0.194872 0,0 z M 41.39,18.2 c -0.323857,-0.368938 0.374746,-0.21491 0,0 z m -0.018,0.05 c 0.04858,-0.147063 0.110271,0.109773 0,0 z m -0.124,-0.018 c 0.205899,-0.04199 0.08983,0.23722 0,0 z m -0.134,-10e-4 c 0.05164,-0.05461 0.05423,0.104353 0,0 z m -0.105,-0.137 c 0.310368,-0.135006 0.215893,0.344378 0,0 z m -2.267,-0.988 c -0.112435,-0.110983 0.118474,-0.03101 0,0 z m -0.664,0.325 c -0.03631,-0.254555 0.40822,-0.179416 0,0 z m -0.02,0.07 c -0.134379,-0.04867 0.101368,-0.03506 0,0 z m -0.039,0.14 c -0.05431,-0.157947 0.104522,-0.06623 0,0 z m 0.222,0.026 c -0.239147,-0.17855 0.122427,-0.20014 0,0 z m -0.025,0.173 c 0.129965,-0.130067 0.01445,0.125741 0,0 z m 0.032,0.18 c -0.08091,-0.0827 0.112669,-0.140067 0,0 z m -0.02,0.031 c -0.109442,0.03453 -0.04281,-0.156567 0,0 z m 0.064,0.102 c -0.110385,-0.04492 0.165292,-0.176391 0,0 z m 0.071,-0.024 c -0.09011,-0.08065 0.05651,-0.04013 0,0 z m 0.051,0.343 c 0.07397,-0.23176 0.153037,0.08079 0,0 z m 0.081,0.258 c -0.174208,-0.108588 0.16746,-0.09851 0,0 z m -0.254,0.852 c 0.192325,-0.36202 0.727313,-0.290086 0.14228,-0.493067 0.471723,-0.455147 0.286872,-0.774304 0.05691,-1.005245 -0.37179,-0.08556 0.159932,-1.345277 0.27281,-0.606688 0.617042,0.04583 -0.440159,0.600311 0.337567,0.69151 0.742651,0.775281 0.50669,1.351883 -0.553327,1.331394 z m 3.895,1.532 0.04422,0.06051 z m -0.059,-0.069 c 0.09377,-0.03038 0.01165,0.121873 0,0 z m -0.051,-0.173 c 0.106889,0.124456 -0.01443,0.232731 0,0 z m 7.012,4.324 c -0.07305,-0.129009 0.106971,-0.13208 0,0 z m 0.479,0.285 c 0.0602,-0.123508 0.08997,0.109206 0,0 z m 0.269,-0.517 c 0.199851,-0.186681 0.149658,0.05842 0,0 z m 0.488,1.232 c 0.02143,-0.235554 0.108676,-0.08833 0,0 z m -0.891,1.51 c 0.155881,-0.195445 0.187561,0.0643 0,0 z m -2.217,-0.409 c 0.227901,-0.06437 0.06815,0.13222 0,0 z m 0.358,-0.224 c 0.158122,0.06601 -0.07167,0.15904 0,0 z m -1.697,-3.589 c -0.34553,-0.397086 0.663491,-0.190998 0,0 z m -1.731,-0.469 c 0.07144,-0.0604 0.01062,0.06663 0,0 z m 0.218,-0.921 0.06684,-0.01559 z m -0.229,-0.131 c 0.109212,-0.03624 -0.01116,0.102369 0,0 z m 0.098,0.201 c 0.153233,-0.102199 0.0613,0.126386 0,0 z m 0.265,0.264 c -0.317183,-0.08144 0.206457,-0.182068 0,0 z m -0.07,0.097 c 0.195169,-0.0079 -0.03342,0.199562 0,0 z M 44.11,22.428 c 0.116432,0.03912 -0.01599,0.10746 0,0 z m 0.022,0.232 c -0.511302,-0.23418 -0.169617,-0.274023 0,0 z m 0.101,0.114 c -0.105923,0.0358 -0.0608,-0.137926 0,0 z m 0.277,-0.013 c 0.03513,-0.07728 0.09612,0.0456 0,0 z m -0.232,0.056 c -0.09806,-0.03808 0.05401,-0.01461 0,0 z m 0.055,0.124 c -0.107169,-0.06185 0.124467,-0.105203 0,0 z m 0.177,0.1 c -0.06318,-0.06185 0.140312,-0.0065 0,0 z m 0.255,0.133 c -0.01178,-0.21438 0.257712,-0.08346 0,0 z m -0.096,0.124 c -0.09817,-0.136737 0.106779,-0.09295 0,0 z m -0.706,-0.034 c 0.832235,-0.06466 0.394769,0.347039 0,0 z M 43.834,23.06 c 0.108475,0.0624 -0.08032,0.08352 0,0 z m -0.482,-0.349 c 0.180317,0.0231 -0.02682,0.09995 0,0 z M 43.337,22.58 c 0.217834,0.127347 -0.115171,0.131539 0,0 z m -0.154,-0.341 c 0.231108,0.232946 -0.220275,-0.01433 0,0 z m -0.85,0.382 c 0.134045,0.767937 -1.081037,-0.07841 -0.09329,0.01597 z m -1.121,-1.169 0.05587,0.0074 z m -0.283,0.322 c -0.112194,-0.420876 0.422377,-0.333136 0,0 z m 0.017,0.692 c -0.488379,-0.975818 0.737008,-0.453533 0,0 z m -0.988,-0.248 c 0.104901,-0.173925 0.185106,0.135334 0,0 z M 39.8,22.262 c 0.283157,-0.118433 -0.09068,0.258447 0,0 z m -0.242,0.198 c 0.06136,-0.180193 0.131226,0.143625 0,0 z m 1.265,-4.745 c 0.02503,-0.09419 0.03309,0.08089 0,0 z m 7.367,3.41 c -0.650005,-0.81718 1.582982,-1.087967 0.526,-0.208 0.276074,0.405845 1.381725,2.341786 0.078,1.781 -0.295713,-0.557862 0.0024,-0.962698 -0.604,-1.573 z"
         id="path32"
         inkscape:connector-curvature="0" />
      <g
         id="g38">
        <path
           id="path34"
           d="m 40.27,59.18 c -0.126,-0.05 -0.24,-0.113 -0.337,-0.2 -0.228,-0.19 -0.35,-0.417 -0.333,-0.703 0.008,-0.558 0.008,-1.118 0.007,-1.663 0.014,-1.262 0.02,-2.514 0.025,-3.778 0.02,-2.017 0.032,-4.031 0.053,-6.064 0.007,-1.83 0.024,-3.668 0.036,-5.498 0.007,-0.547 0.015,-1.09 0.011,-1.627 -0.002,-0.01 0.004,-0.032 0.004,-0.032 -0.02,-0.185 0.075,-0.311 0.224,-0.397 0.121,-0.075 0.251,-0.126 0.394,-0.149 0.238,-0.051 0.479,-0.062 0.723,-0.06 0.272,0.007 0.543,0.037 0.803,0.112 0.116,0.035 0.23,0.07 0.334,0.129 0.043,0.031 0.07,0.061 0.114,0.104 0.075,0.051 0.117,0.129 0.117,0.228 0.003,0.105 0.007,0.205 0.011,0.313 0.015,0.602 0.042,1.205 0.07,1.794 0.035,0.876 0.069,1.749 0.094,2.622 0.018,0.444 0.031,0.891 0.05,1.354 0.04,1.083 0.077,2.183 0.116,3.278 0.016,0.603 0.048,1.195 0.065,1.778 0.04,1.049 0.072,2.088 0.12,3.127 0.02,0.657 0.043,1.32 0.066,1.977 0.026,0.831 0.047,1.645 0.092,2.471 0.011,0.313 -0.115,0.55 -0.36,0.734 -0.169,0.128 -0.376,0.21 -0.597,0.268 -0.565,0.156 -1.138,0.146 -1.705,-0.041 -0.025,0.006 -0.049,-0.011 -0.066,-0.025 -0.05,-0.014 -0.082,-0.038 -0.131,-0.052 z"
           inkscape:connector-curvature="0"
           style="clip-rule:evenodd;fill-rule:evenodd" />
        <path
           id="path36"
           d="m 42.142,38.761 c -0.12,-0.008 -0.227,-0.063 -0.345,-0.081 -0.11,-0.015 -0.227,-0.047 -0.345,-0.063 -0.114,-0.003 -0.231,-0.014 -0.357,-0.017 -0.117,-0.004 -0.235,-0.004 -0.359,0.014 -0.11,0 -0.222,0.017 -0.332,0.038 -0.119,0.013 -0.238,0.035 -0.356,0.063 -0.021,-0.035 -0.021,-0.063 -0.021,-0.101 -0.012,-0.753 -0.018,-1.5 -0.028,-2.245 -0.008,-0.299 -0.011,-0.602 -0.02,-0.896 0,-0.049 -0.002,-0.061 0.009,-0.108 0.354,0.027 0.703,0.048 1.053,0.048 0.348,-10e-4 0.701,-0.02 1.039,-0.047 0.045,0.05 0.029,0.107 0.018,0.152 0.025,0.718 0.031,1.426 0.039,2.137 0.002,0.338 0.004,0.681 0.015,1.01 10e-4,0.035 -0.014,0.063 -0.01,0.096 z"
           inkscape:connector-curvature="0"
           style="clip-rule:evenodd;fill-rule:evenodd" />
      </g>
      <g
         id="XMLID_57_">
        <g
           id="g42">
          <path
             id="path40"
             d="m 28.003,22.104 c 0,7.267 5.897,13.145 13.157,13.145 7.267,-0.006 13.164,-5.878 13.164,-13.145 0,-7.272 -5.897,-13.169 -13.164,-13.164 -7.26,0 -13.157,5.898 -13.157,13.164 z M 41.16,35.931 C 33.512,35.937 27.315,29.74 27.315,22.098 c 0,-7.648 6.197,-13.864 13.845,-13.864 7.648,0 13.852,6.222 13.852,13.87 0,7.636 -6.204,13.827 -13.852,13.827 z"
             inkscape:connector-curvature="0" />
        </g>
        <g
           id="g44" />
      </g>
      <g
         id="g59"
         style="opacity:0.7">
        <g
           id="g55">
          <path
             id="path47"
             d="M 48.103,11.994 C 44.451,9.517 39.915,9.389 36.249,11.256 c 3.333,-0.479 7.053,0.33 10.302,2.527 0.062,0.044 0.123,0.076 0.178,0.127 l 1.829,-1.589 C 48.407,12.208 48.263,12.09 48.103,11.994 Z"
             inkscape:connector-curvature="0"
             style="opacity:0.57999998;fill:#ffffff" />
          <path
             id="path49"
             d="M 48.103,11.994 C 44.451,9.517 39.915,9.389 36.249,11.256 c 3.333,-0.479 7.053,0.33 10.302,2.527 0.062,0.044 0.123,0.076 0.178,0.127 l 1.829,-1.589 C 48.407,12.208 48.263,12.09 48.103,11.994 Z"
             inkscape:connector-curvature="0"
             style="fill:#ffffff" />
          <path
             id="path51"
             d="m 52.982,24.008 c 0.797,-3.883 -0.42,-8.012 -3.388,-10.814 l -1.771,1.554 c 3.009,2.503 4.814,5.892 5.159,9.26 z"
             inkscape:connector-curvature="0"
             style="opacity:0.57999998;fill:#ffffff" />
          <path
             id="path53"
             d="m 52.982,24.008 c 0.797,-3.883 -0.42,-8.012 -3.388,-10.814 l -1.771,1.554 c 3.009,2.503 4.814,5.892 5.159,9.26 z"
             inkscape:connector-curvature="0"
             style="fill:#ffffff" />
        </g>
        <path
           id="path57"
           d="m 36.134,31.941 c -4.613,-2.235 -7.17,-7.02 -6.784,-11.843 -1.077,5.147 1.428,10.563 6.377,12.958 5.506,2.652 12.06,0.612 15.134,-4.531 -3.423,4.37 -9.523,5.912 -14.727,3.416 z"
           inkscape:connector-curvature="0"
           style="fill:#ffffff" />
      </g>
      <rect
         id="rect61"
         height="24.733999"
         width="190.67"
         y="40.935001"
         x="45.299"
         style="fill:none" />
      <g
         aria-label="et’s get informed"
         transform="translate(45.2979,58.4409)"
         style="font-size:24.14609909px;font-family:GoudyOldStyleT-Regular;fill:#000100"
         id="text63">
        <path
           d="m 2.3904638,-6.1572553 q 0.096584,0.9416979 0.1690227,1.5694965 0.072438,0.6036525 0.3380454,1.1590127 0.5312142,1.1107206 1.4487659,1.7626653 0.9175518,0.6277985 2.1248568,0.6277985 0.7726751,0 1.4487659,-0.3863375 0.7002369,-0.4587759 1.4246198,-0.9175518 0.1448766,0 0.2173149,0.1931688 0,0.8209674 -1.7385191,1.61778862 -1.5453503,0.70023687 -2.5111943,0.70023687 -2.0524184,0 -3.3321617,-1.54535029 -1.25559713,-1.5453504 -1.25559713,-3.646061 0,-2.0524184 1.30388933,-3.6943532 1.3280355,-1.6419352 3.3321617,-1.6419352 1.4004737,0 2.7526553,1.1590132 1.3521815,1.1348667 1.3521815,2.4870483 0,0.3621914 -0.265607,0.4829219 -0.241461,0.096584 -0.6760908,0.096584 -0.4346298,-0.024146 -0.6036525,-0.024146 z M 6.7126155,-6.833346 q 0.4104837,0 0.6036525,-0.072438 0.1931688,-0.072438 0.1931688,-0.4346298 0,-0.8934057 -0.7726752,-1.6660809 -0.748529,-0.7968212 -1.6419347,-0.7968212 -1.1348666,0 -1.8833957,0.9416978 -0.6519447,0.8209674 -0.8209674,2.0282724 z"
           style="font-style:normal;font-variant:normal;font-weight:normal;font-stretch:normal;font-family:GoudyOldStyleTwo;-inkscape-font-specification:GoudyOldStyleTwo"
           id="path45" />
        <path
           d="m 15.54707,-9.9240467 q 0.627799,0 0.965844,-0.048292 0.338045,-0.072438 0.820967,-0.3138991 0.169023,0.07244 0.169023,0.241461 -0.193169,0.4587757 -0.386338,0.9175515 -0.217314,0.3138993 -0.893405,0.3138993 h -1.448766 l -1.014136,-0.024146 -0.04829,6.6160312 q 0,0.6760908 0.458776,1.1107205 0.458776,0.43462983 1.134867,0.43462983 0.338045,0 0.748529,-0.1448766 1.110721,-0.38633763 1.207305,-0.41048373 l 0.144877,0.072438 0.04829,0.096584 v 0.12073054 l -0.144877,0.21731489 q -0.796821,0.45877588 -1.376327,0.70023687 -0.579507,0.21731489 -1.328036,0.21731489 -1.328035,0 -1.97998,-0.72438297 -0.627799,-0.72438302 -0.627799,-2.07656452 l 0.02415,-6.2296936 q -0.144877,-0.024146 -0.410484,-0.024146 -0.458776,0.024146 -0.676091,0.024146 -0.193169,0 -0.241461,-0.1931688 l 0.02415,-0.1690227 q 0.09658,-0.1690226 0.193169,-0.2414609 0.12073,-0.096584 0.338045,-0.2173149 0.386338,-0.241461 1.086575,-1.1107204 0.241461,-0.313899 0.98999,-1.328036 0.04829,-0.04829 0.12073,-0.144876 0.07244,-0.09658 0.217315,-0.144877 l 0.07244,0.09658 0.07244,0.724383 -0.04829,1.497058 v 0.096584 z"
           style="font-style:normal;font-variant:normal;font-weight:normal;font-stretch:normal;font-family:GoudyOldStyleTwo;-inkscape-font-specification:GoudyOldStyleTwo"
           id="path48" />
        <path
           d="m 18.721151,-15.453503 q 0.07244,-0.169023 0.313899,-0.507068 0.386338,-0.507069 0.772676,-1.014137 0.12073,-0.09658 0.338045,-0.09658 0.144877,0.04829 0.217315,0.09658 0.07244,0.02415 0.217315,0.120731 0.603652,0.386337 0.965844,1.159013 0.386337,0.748529 0.386337,1.521204 0,0.893406 -0.627798,2.173149 -0.724383,1.448766 -1.497058,1.569496 l -0.09658,-0.02415 -0.07244,-0.09658 -0.04829,-0.169023 q 0.410483,-0.651945 0.845113,-1.328035 0.217315,-0.458776 0.217315,-0.965844 0,-0.772676 -0.579506,-1.352182 -0.676091,-0.531214 -1.352182,-1.086574 z"
           style="font-style:normal;font-variant:normal;font-weight:normal;font-stretch:normal;font-family:GoudyOldStyleTwo;-inkscape-font-specification:GoudyOldStyleTwo"
           id="path50" />
        <path
           d="m 24.031783,-3.7184993 h 0.09658 l 0.120731,0.024146 0.169023,0.2173149 q 0.09658,0.4346298 0.193168,0.8692596 0.3139,0.965844 0.965844,1.5212042 0.651945,0.55536032 1.617789,0.55536032 0.845114,0 1.42462,-0.50706812 0.579506,-0.507068 0.579506,-1.3280354 0,-1.0382823 -2.607778,-2.2455872 -2.583633,-1.207305 -2.583633,-3.0182624 0,-1.2314511 0.941698,-2.0282723 0.941698,-0.7968214 2.197295,-0.7968214 0.845113,0 1.521204,0.144877 1.086575,0.241461 1.159013,0.5795061 0.07244,0.3380454 0.09658,0.7726751 0.04829,0.4104837 0.04829,0.8692596 0,0.2897532 -0.241461,0.3621915 l -0.12073,-0.024146 -0.09658,-0.072438 q -0.169023,-0.8209674 -0.941698,-1.4246199 -0.772675,-0.6036524 -1.617789,-0.6036524 -0.651945,0 -1.183159,0.4346298 -0.507068,0.4104836 -0.507068,1.0624283 0,0.8934057 2.607779,2.0765645 2.631925,1.1831589 2.631925,3.0665546 0,1.3521816 -1.038283,2.34217163 -1.038282,0.98999007 -2.41461,0.98999007 -0.531214,0 -1.835103,-0.41048369 -1.303889,-0.41048368 -1.352182,-0.70023687 -0.02415,-0.31389934 -0.04829,-0.60365244 0,-0.2897532 0,-0.4587759 v -0.9899901 q 0,-0.482922 0.217315,-0.6760908 z"
           style="font-style:normal;font-variant:normal;font-weight:normal;font-stretch:normal;font-family:GoudyOldStyleTwo;-inkscape-font-specification:GoudyOldStyleTwo"
           id="path52" />
        <path
           d="m 38.854093,-1.4004737 q 0,-0.5795064 0.458776,-1.2314511 0.386338,-0.5553603 0.965844,-0.965844 -1.593643,-0.8934056 -1.593643,-2.8492397 0,-1.714373 1.014137,-2.7526553 1.038282,-1.0624282 2.728509,-1.0624282 0.651945,0 1.472912,0.2897531 0.845113,0.3380454 1.714373,0.6760908 0.627799,0 1.038282,-0.3380454 0.410484,-0.3621915 0.724383,-0.9899905 l 0.09659,-0.07244 0.12073,-0.02415 q 0.193169,0 0.193169,0.289753 0,0.217315 -0.09659,0.5070683 -0.09658,0.2897532 -0.144876,0.4346298 -0.265607,0.8451134 -0.362192,0.98999 -0.265607,0.3863376 -0.917551,0.5553603 0.04829,0.2173149 0.12073,0.6519447 0.07244,0.4104837 0.07244,0.6277986 0,1.5936425 -1.159012,2.5836326 -1.134867,0.9658439 -2.776802,0.9658439 -0.338045,0 -0.627798,-0.024146 -0.265607,-0.024146 -0.941698,-0.1931688 l -0.507068,0.2173149 q -0.217315,0.2173149 -0.43463,0.4346298 -0.169023,0.241461 -0.169023,0.6036525 0,0.8451134 3.621915,1.0382822 3.646061,0.19316883 3.646061,2.3180256 0,1.6177886 -1.690227,2.5594865 -1.448766,0.7968212 -3.211431,0.7968212 -1.617789,0 -2.752655,-0.4587759 -1.593643,-0.6519446 -1.593643,-2.0282723 0,-0.7726752 0.531214,-1.27974323 0.43463,-0.41048369 1.255597,-0.72438298 -0.386337,-0.38633758 -0.482922,-0.50706808 -0.313899,-0.38633758 -0.313899,-1.03828221 z m 1.328036,1.76266519 q -0.603653,0.48292198 -0.820968,0.84511351 -0.193169,0.3621914 -0.193169,0.748529 0,1.1348667 0.917552,1.690227 0.748529,0.4587758 1.97998,0.4587758 1.42462,0 2.462902,-0.4346297 1.42462,-0.6036525 1.42462,-1.8109575 0,-0.6036524 -0.55536,-0.8451134 -0.55536,-0.21731493 -1.255597,-0.21731493 -1.038282,0 -2.028272,-0.0965844 -0.965844,-0.0965844 -1.931688,-0.33804538 z m 4.732635,-6.83334609 q 0,-1.2797432 -0.531214,-2.1731489 -0.651945,-1.0865744 -1.835104,-1.0865744 -1.11072,0 -1.714373,0.8692595 -0.579506,0.8692596 -0.579506,2.0282724 0,1.1831588 0.579506,2.1248567 0.676091,1.1107205 1.810958,1.1107205 1.062428,0 1.666081,-0.8692595 0.603652,-0.8934057 0.603652,-2.0041263 z"
           style="font-style:normal;font-variant:normal;font-weight:normal;font-stretch:normal;font-family:GoudyOldStyleTwo;-inkscape-font-specification:GoudyOldStyleTwo"
           id="path54" />
        <path
           d="m 50.682662,-6.1572553 q 0.09658,0.9416979 0.169023,1.5694965 0.07244,0.6036525 0.338045,1.1590127 0.531214,1.1107206 1.448766,1.7626653 0.917552,0.6277985 2.124857,0.6277985 0.772675,0 1.448766,-0.3863375 0.700237,-0.4587759 1.42462,-0.9175518 0.144876,0 0.217314,0.1931688 0,0.8209674 -1.738519,1.61778862 -1.54535,0.70023687 -2.511194,0.70023687 -2.052418,0 -3.332162,-1.54535029 -1.255597,-1.5453504 -1.255597,-3.646061 0,-2.0524184 1.30389,-3.6943532 1.328035,-1.6419352 3.332161,-1.6419352 1.400474,0 2.752655,1.1590132 1.352182,1.1348667 1.352182,2.4870483 0,0.3621914 -0.265607,0.4829219 -0.241461,0.096584 -0.676091,0.096584 -0.43463,-0.024146 -0.603652,-0.024146 z m 4.322152,-0.6760907 q 0.410483,0 0.603652,-0.072438 0.193169,-0.072438 0.193169,-0.4346298 0,-0.8934057 -0.772675,-1.6660809 -0.748529,-0.7968212 -1.641935,-0.7968212 -1.134867,0 -1.883396,0.9416978 -0.651944,0.8209674 -0.820967,2.0282724 z"
           style="font-style:normal;font-variant:normal;font-weight:normal;font-stretch:normal;font-family:GoudyOldStyleTwo;-inkscape-font-specification:GoudyOldStyleTwo"
           id="path56" />
        <path
           d="m 63.83927,-9.9240467 q 0.627799,0 0.965844,-0.048292 0.338045,-0.072438 0.820967,-0.3138991 0.169023,0.07244 0.169023,0.241461 -0.193169,0.4587757 -0.386338,0.9175515 -0.217314,0.3138993 -0.893405,0.3138993 h -1.448766 l -1.014136,-0.024146 -0.04829,6.6160312 q 0,0.6760908 0.458775,1.1107205 0.458776,0.43462983 1.134867,0.43462983 0.338045,0 0.748529,-0.1448766 1.110721,-0.38633763 1.207305,-0.41048373 l 0.144877,0.072438 0.04829,0.096584 v 0.12073054 l -0.144877,0.21731489 q -0.796821,0.45877588 -1.376327,0.70023687 -0.579507,0.21731489 -1.328036,0.21731489 -1.328035,0 -1.97998,-0.72438297 -0.627799,-0.72438302 -0.627799,-2.07656452 l 0.02415,-6.2296936 q -0.144877,-0.024146 -0.410484,-0.024146 -0.458776,0.024146 -0.676091,0.024146 -0.193169,0 -0.241461,-0.1931688 l 0.02415,-0.1690227 q 0.09658,-0.1690226 0.193169,-0.2414609 0.120731,-0.096584 0.338045,-0.2173149 0.386338,-0.241461 1.086575,-1.1107204 0.241461,-0.313899 0.98999,-1.328036 0.04829,-0.04829 0.12073,-0.144876 0.07244,-0.09658 0.217315,-0.144877 l 0.07244,0.09658 0.07244,0.724383 -0.04829,1.497058 v 0.096584 z"
           style="font-style:normal;font-variant:normal;font-weight:normal;font-stretch:normal;font-family:GoudyOldStyleTwo;-inkscape-font-specification:GoudyOldStyleTwo"
           id="path58" />
        <path
           d="m 72.915564,-9.2962481 0.04829,-0.096584 0.144877,-0.096584 q 0.603652,-0.072438 1.472912,-0.4587759 1.231451,-0.5553602 1.448766,-0.6277982 l 0.144876,0.04829 0.04829,0.12073 q 0,0.9416982 -0.04829,3.1631393 -0.04829,2.2214411 -0.04829,2.3663177 0,1.3521815 0.09658,2.5353404 0.120731,1.1831588 0.555361,1.47291203 0.169022,0.1207305 0.67609,0.24146099 0.507068,0.1207305 0.603653,0.2173149 l 0.04829,0.12073049 -0.07244,0.16902269 q -0.144877,0.0965844 -0.289753,0.0965844 l -2.631925,-0.0724383 -1.231451,0.0482922 q -0.458776,0 -0.458776,-0.19316879 l 0.07244,-0.21731489 q 0.700237,-0.31389929 0.86926,-0.65194472 0.169022,-0.3380453 0.169022,-1.0141361 v -0.6036525 l 0.02415,-3.3321617 0.04829,-1.4246198 q 0,-0.7968213 -0.362192,-1.0865745 -0.338045,-0.2897532 -1.207305,-0.4104837 l -0.12073,-0.096584 v -0.096584 z m 2.631925,-6.0606709 q 0.217314,0 0.603652,0.579506 0.386338,0.579507 0.386338,0.820968 0,0.193169 -0.3139,0.507068 -0.289753,0.313899 -0.531214,0.579506 l -0.217315,0.09658 q -0.338045,-0.144877 -0.67609,-0.507068 -0.410484,-0.43463 -0.410484,-0.74853 0,-0.289753 0.43463,-0.796821 0.458775,-0.531214 0.724383,-0.531214 z"
           style="font-style:normal;font-variant:normal;font-weight:normal;font-stretch:normal;font-family:GoudyOldStyleTwo;-inkscape-font-specification:GoudyOldStyleTwo"
           id="path60" />
        <path
           d="m 85.312693,-10.189654 q 1.207305,0 2.100711,0.8209676 0.772675,0.7002368 1.086575,1.9799801 0.24146,0.9658439 0.24146,2.3180255 l -0.07244,2.680217 q 0,0.9416979 0.313899,1.3521815 0.338046,0.41048372 1.255598,0.55536032 0.144876,0.14487659 0.169022,0.24146099 0,0.28975319 -0.313899,0.28975319 -0.458776,0 -1.569496,-0.0482922 -1.086575,-0.0482922 -1.183159,-0.0482922 -0.193169,0 -0.651945,0.0482922 -0.43463,0.0482922 -0.458776,0.0482922 -0.193169,0 -0.241461,-0.19316879 l 0.02415,-0.1207305 0.07244,-0.1207305 q 0.627798,-0.21731489 0.772675,-0.38633758 0.169022,-0.19316879 0.169022,-0.84511343 v -4.1772752 q 0,-1.3280354 -0.700236,-2.2938794 -0.796822,-1.0865745 -2.076565,-1.0865745 -0.893406,0 -1.738519,0.5795064 -0.845114,0.5553603 -0.845114,1.4004738 v 5.3845801 q 0,0.748529 0.579507,1.08657443 0.386337,0.21731489 1.279743,0.31389929 0.144877,0.0965844 0.169023,0.16902269 v 0.0965844 L 83.670759,-0.0724383 83.574174,0 83.453444,0.0241461 q -0.458776,0 -1.255597,-0.0482922 -0.772676,-0.0724383 -0.917552,-0.0724383 -0.338046,0 -1.134867,0.0482922 Q 79.372753,0 79.300315,0 h -0.289753 l -0.120731,-0.16902269 v -0.1207305 l 0.07244,-0.12073049 q 0.627799,-0.28975319 0.820968,-0.55536028 0.217315,-0.28975324 0.217315,-0.91755174 v -5.8916482 q 0,-0.965844 -0.555361,-1.0382823 -0.531214,-0.096584 -1.062428,-0.1931688 l -0.07244,-0.1207305 0.09658,-0.1931687 q 0.144877,-0.072438 0.43463,-0.1207305 0.507068,-0.1207305 1.014136,-0.3380454 0.796821,-0.3621919 1.617789,-0.7485289 0.12073,0.07244 0.193168,0.362191 0.07244,0.2656074 0.07244,0.7485294 l -0.02415,0.8692595 q 0.651944,-0.7726751 1.617788,-1.2073049 0.965844,-0.43463 1.97998,-0.43463 z"
           style="font-style:normal;font-variant:normal;font-weight:normal;font-stretch:normal;font-family:GoudyOldStyleTwo;-inkscape-font-specification:GoudyOldStyleTwo"
           id="path62" />
        <path
           d="m 92.904008,-9.9240467 q 0,-2.7285093 1.400474,-4.9740963 1.641935,-2.607779 4.225568,-2.607779 0.362191,0 0.579506,0.120731 0.217315,0.12073 0.217315,0.458776 0,0.289753 -0.193169,0.796821 -0.169023,0.507068 -0.410484,0.55536 -0.603652,-0.748529 -1.472912,-0.748529 -1.714373,0 -2.342171,2.149003 -0.386338,1.303889 -0.386338,3.549476 0,0.482922 0.04829,0.7243834 l 1.014136,0.024146 q 0.724383,0 1.159013,-0.048292 0.43463,-0.048292 0.579507,-0.3138993 l 0.241461,0.12073 v 0.2173154 q -0.217315,0.5070681 -0.3139,0.6519446 -0.338045,0.4587759 -1.038282,0.4587759 l -1.593642,-0.072438 v 6.1814014 q 0,0.7726752 0.07244,1.0865745 0.07244,0.2897531 0.313899,0.5312141 0.144877,0.14487663 0.98999,0.48292202 0.386338,0.1690227 0.43463,0.26560709 l -0.07244,0.21731489 -0.241461,0.0724383 -1.352182,-0.0724383 -2.680217,0.0724383 q -0.265607,0 -0.265607,-0.26560709 l 0.09658,-0.16902269 q 0.627799,-0.26560709 0.820968,-0.53121418 0.193169,-0.28975324 0.193169,-0.98999004 v -6.9057844 h -0.772676 q -0.458775,0 -0.651944,-0.072438 -0.193169,-0.096584 -0.193169,-0.2897532 0,-0.4829219 0.338045,-0.5795063 0.338046,-0.1207305 0.627799,-0.1207305 0.458776,0.024146 0.627798,0.024146 z"
           style="font-style:normal;font-variant:normal;font-weight:normal;font-stretch:normal;font-family:GoudyOldStyleTwo;-inkscape-font-specification:GoudyOldStyleTwo"
           id="path64" />
        <path
           d="m 103.61129,-10.431115 q 2.29388,0 3.81509,1.4487661 1.54535,1.4246199 1.54535,3.7184993 0,2.2938794 -1.5695,3.887522 -1.54535,1.56949639 -3.83923,1.56949639 -2.17315,0 -3.766791,-1.47291209 -1.593642,-1.472912 -1.593642,-3.6460609 0,-2.3904638 1.497058,-3.9358142 1.521205,-1.5694966 3.911665,-1.5694966 z m 0.41049,9.97233912 q 1.47291,0 2.36631,-1.25559712 0.79683,-1.1107206 0.79683,-2.6560709 0,-1.9558341 -0.9417,-3.5253305 -1.08658,-1.8351035 -2.92168,-1.8351035 -1.61779,0 -2.48705,1.2073049 -0.77267,1.0624284 -0.77267,2.7285092 0,2.0765645 0.91755,3.5736227 1.08657,1.76266522 3.04241,1.76266522 z"
           style="font-style:normal;font-variant:normal;font-weight:normal;font-stretch:normal;font-family:GoudyOldStyleTwo;-inkscape-font-specification:GoudyOldStyleTwo"
           id="path66" />
        <path
           d="m 116.51474,-10.2138 q 0.38634,0 0.9417,0.4104838 0.55536,0.4104837 0.55536,0.7726751 0,0.2173149 -0.33805,0.6036525 -0.33804,0.3621915 -0.55536,0.4346298 -0.16902,-0.024146 -0.60365,-0.3138993 -0.43463,-0.3138993 -0.91755,-0.3138993 -0.91755,0 -1.35218,0.6519447 -0.43463,0.6519447 -0.43463,1.6419347 v 3.646061 q 0,1.0141362 0.33804,1.5212042 0.33805,0.50706812 1.30389,0.62779862 l 0.16903,0.14487659 0.0241,0.0965844 -0.0241,0.0965844 -0.0724,0.09658439 -0.24146,0.0724383 -1.37633,-0.0724383 -2.1973,0.0482922 q -0.2656,0 -0.53121,-0.0241461 -0.24146,-0.0482922 -0.24146,-0.19316879 l 0.0724,-0.24146099 q 0.74853,-0.24146099 0.9417,-0.60365252 0.19316,-0.3621914 0.19316,-1.231451 v -4.9499503 q 0,-0.9416979 -0.16902,-1.207305 -0.26561,-0.3863376 -1.13487,-0.3863376 -0.28975,0 -0.38633,-0.3863376 l 0.14487,-0.1690226 q 1.03829,-0.2897532 1.15902,-0.3138993 0.12073,-0.048292 0.6278,-0.265607 0.33804,-0.193169 0.53121,-0.289753 0.41048,-0.217315 0.53121,-0.241461 h 0.14488 l 0.19317,0.09658 q 0.0724,0.217315 0.0724,0.941698 v 1.0141361 0.4346298 q 0.16902,-0.7002369 1.03828,-1.4246198 0.86926,-0.7243831 1.59364,-0.7243831 z"
           style="font-style:normal;font-variant:normal;font-weight:normal;font-stretch:normal;font-family:GoudyOldStyleTwo;-inkscape-font-specification:GoudyOldStyleTwo"
           id="path68" />
        <path
           d="m 124.86778,-10.117216 q 0.82097,0 1.37633,0.2897537 0.55536,0.2656071 1.5695,1.4970581 0.70023,-0.8934057 1.44876,-1.3038893 0.84512,-0.4829225 1.90754,-0.4829225 0.9417,0 1.71438,0.4346303 0.98999,0.6277985 1.40047,1.8351035 0.3139,0.9175518 0.3139,2.3421716 0,0.4346298 -0.0241,1.3038894 -0.0241,0.8692595 -0.0241,1.3038893 0,0.8934057 0.14488,1.3521816 0.24146,0.72438293 0.91755,0.89340562 l 0.48292,0.0965844 q 0.16902,0.1207305 0.16902,0.31389929 l -0.0724,0.0965844 -0.2656,0.12073049 -3.81509,-0.0241461 q -0.28975,0 -0.24146,-0.31389929 l 0.0483,-0.12073049 q 0.6278,-0.28975319 0.79683,-0.60365252 0.16902,-0.3138992 0.16902,-1.0141361 v -3.3804539 q 0,-1.472912 -0.55536,-2.4629021 -0.67609,-1.2314511 -2.05242,-1.2314511 -0.72438,0 -1.52121,0.5795064 -0.77267,0.5795064 -0.77267,1.2797433 l 0.0483,4.4911744 q 0,1.0624284 0.28976,1.5936425 0.38633,0.72438302 1.37632,0.72438302 0.16903,0.12073049 0.16903,0.21731489 l -0.0724,0.16902269 Q 129.67286,0 129.52798,0 q -0.19317,0 -0.57951,-0.0482922 -0.38633,-0.0482922 -0.55536,-0.0482922 l -2.75265,0.0482922 q -0.36219,0 -0.33805,-0.31389929 l 0.0724,-0.12073049 q 0.60365,-0.28975319 0.77268,-0.55536032 0.19316,-0.2897531 0.19316,-0.9416978 v -4.5394667 q 0,-1.1107205 -0.67609,-1.8592496 -0.67609,-0.7485291 -1.76266,-0.7485291 -0.84511,0 -1.59364,0.6277986 -0.72439,0.6036525 -0.72439,1.448766 v 4.877512 q 0,1.1590127 0.72439,1.37632763 0.74853,0.19316879 0.96584,0.31389929 l 0.0724,0.0965844 0.0241,0.0965844 -0.0483,0.1207305 q -0.19317,0.14487659 -0.5795,0.14487659 h -3.4529 q -0.2656,0 -0.48292,-0.14487659 l -0.0241,-0.0965844 0.0966,-0.21731489 q 0.55536,-0.31389929 0.67609,-0.43462979 0.36219,-0.31389933 0.36219,-1.11072053 v -5.3121418 q 0,-0.8934057 -0.19317,-1.1590128 -0.2656,-0.3863376 -1.11072,-0.3863376 -0.28975,0 -0.33804,-0.3621915 0.0966,-0.1931687 0.24146,-0.2173148 0.16902,-0.072438 0.74853,-0.2656071 0.60365,-0.1931688 0.9417,-0.3380451 0.53121,-0.265607 1.08657,-0.531215 l 0.0966,-0.02415 q 0.16903,0 0.21732,0.241461 0.0483,0.217315 0.0966,0.5312146 l -0.0483,0.6760907 0.0483,0.5553603 q 1.23146,-1.4970586 3.16314,-1.4970586 z"
           style="font-style:normal;font-variant:normal;font-weight:normal;font-stretch:normal;font-family:GoudyOldStyleTwo;-inkscape-font-specification:GoudyOldStyleTwo"
           id="path70" />
        <path
           d="m 139.53277,-6.1572553 q 0.0966,0.9416979 0.16902,1.5694965 0.0724,0.6036525 0.33805,1.1590127 0.53121,1.1107206 1.44876,1.7626653 0.91755,0.6277985 2.12486,0.6277985 0.77267,0 1.44876,-0.3863375 0.70024,-0.4587759 1.42462,-0.9175518 0.14488,0 0.21732,0.1931688 0,0.8209674 -1.73852,1.61778862 -1.54535,0.70023687 -2.51119,0.70023687 -2.05242,0 -3.33217,-1.54535029 -1.25559,-1.5453504 -1.25559,-3.646061 0,-2.0524184 1.30389,-3.6943532 1.32803,-1.6419352 3.33216,-1.6419352 1.40047,0 2.75265,1.1590132 1.35218,1.1348667 1.35218,2.4870483 0,0.3621914 -0.2656,0.4829219 -0.24146,0.096584 -0.67609,0.096584 -0.43463,-0.024146 -0.60366,-0.024146 z m 4.32215,-0.6760907 q 0.41048,0 0.60365,-0.072438 0.19317,-0.072438 0.19317,-0.4346298 0,-0.8934057 -0.77267,-1.6660809 -0.74853,-0.7968212 -1.64194,-0.7968212 -1.13487,0 -1.8834,0.9416978 -0.65194,0.8209674 -0.82096,2.0282724 z"
           style="font-style:normal;font-variant:normal;font-weight:normal;font-stretch:normal;font-family:GoudyOldStyleTwo;-inkscape-font-specification:GoudyOldStyleTwo"
           id="path72" />
        <path
           d="m 156.09397,-15.091312 q 0,-1.014136 -0.96585,-1.279743 -0.96584,-0.265607 -0.96584,-0.338046 0,-0.193168 0.24146,-0.217314 0.26561,-0.04829 0.50707,-0.07244 0.24146,-0.02415 1.15901,-0.386337 0.91755,-0.386338 1.27974,-0.651945 l 0.14488,-0.04829 q 0.16902,0.07244 0.19317,0.265607 0.0483,0.169023 0.0483,0.458776 v 14.6325358 q 0,1.0865745 0.26561,1.472912 0.28975,0.38633763 1.32803,0.38633763 l 0.12074,0.0482922 0.0966,0.1448766 -0.0724,0.14487659 q -0.0966,0.0965844 -0.50707,0.19316879 -0.74853,0.0724383 -1.23145,0.1690227 -0.48292,0.07243829 -1.08657,0.26560709 l -0.3139,0.07243829 q -0.12073,0 -0.19317,-0.26560709 -0.0724,-0.28975319 -0.0724,-0.72438297 V -1.6177886 q -0.82097,0.82096733 -1.81096,1.32803541 -0.96584,0.48292198 -2.00412,0.48292198 -1.8834,0 -3.11485,-1.59364249 -1.11072,-1.448766 -1.11072,-3.4046 0,-2.197295 1.42462,-3.8633759 1.5212,-1.7868114 3.67021,-1.7868114 1.64193,0 2.96997,0.9658441 z m -2.63193,14.14961414 q 1.20731,0 1.90754,-0.72438294 0.72439,-0.7485291 0.72439,-1.9558341 v -3.3563077 l -0.0242,-0.7485291 q -0.0966,-0.8692596 -1.11072,-1.4729121 -0.98999,-0.6277985 -1.95583,-0.6277985 -1.61779,0 -2.53534,1.1831588 -0.89341,1.1590128 -0.89341,2.8250936 0,1.7626653 1.03828,3.2355773 1.15902,1.64193474 2.84924,1.64193474 z"
           style="font-style:normal;font-variant:normal;font-weight:normal;font-stretch:normal;font-family:GoudyOldStyleTwo;-inkscape-font-specification:GoudyOldStyleTwo"
           id="path74" />
        <g
           aria-label="BETA"
           transform="rotate(-23.191806)"
           style="font-style:normal;font-variant:normal;font-weight:normal;font-stretch:normal;font-size:12.11485481px;line-height:1.25;font-family:'Stencil Std';-inkscape-font-specification:'Stencil Std';letter-spacing:0px;word-spacing:0px;fill:#000000;fill-opacity:1;stroke:none;stroke-width:0.30287138"
           id="text3894">
          <path
             d="m 151.21462,59.787606 h -3.2589 c -0.0848,0 -0.38767,0.02423 -0.38767,0.375561 0,0.169608 0.10903,0.278642 0.26653,0.327101 0.42402,0.133263 0.4119,0.205953 0.4119,0.654202 v 6.348184 c 0,0.44825 0.0121,0.520939 -0.4119,0.654202 -0.1575,0.04846 -0.26653,0.157493 -0.26653,0.327101 0,0.351331 0.30287,0.375561 0.38767,0.375561 h 3.2589 z m 0.54517,0.702662 c 0.72689,0.07269 0.90861,0.557283 0.90861,1.066107 v 1.211486 c 0,0.448249 -0.0242,0.969188 -0.90861,1.041877 V 64.5124 c 0.77535,0.06057 0.90861,0.581513 0.90861,1.138796 v 1.562816 c 0,0.436135 -0.0969,0.8965 -0.90861,0.932844 v 0.702662 h 0.38767 c 0.86016,0 1.62339,0.03634 2.39875,-0.39979 0.76323,-0.42402 1.13879,-1.102452 1.13879,-1.962607 0,-1.514357 -1.06611,-2.107985 -2.41085,-2.326052 v -0.02423 c 1.17514,-0.181723 2.2897,-0.79958 2.2897,-2.132214 0,-0.860155 -0.43613,-1.490127 -1.18725,-1.865688 -0.70266,-0.339216 -1.47802,-0.351331 -2.24125,-0.351331 h -0.37556 z"
             style="fill:#d40000;stroke-width:0.30287138"
             id="path3896" />
          <path
             d="m 156.72631,60.163167 c 0,0.169608 0.10904,0.278642 0.26653,0.327101 0.42402,0.133263 0.4119,0.205953 0.4119,0.654202 v 6.348184 c 0,0.44825 0.0121,0.520939 -0.4119,0.654202 -0.15749,0.04846 -0.26653,0.157493 -0.26653,0.327101 0,0.351331 0.39979,0.375561 0.44825,0.375561 h 3.19832 v -9.061912 h -3.19832 c -0.0485,0 -0.44825,0.02423 -0.44825,0.375561 z m 4.19174,0.327101 c 1.06611,0.169608 1.68397,0.763236 1.99895,1.744539 0.0606,0.181723 0.12115,0.302871 0.3271,0.302871 0.36345,0 0.37556,-0.230182 0.37556,-0.290756 v -2.459316 h -2.70161 z m 0,8.35925 h 2.78642 v -2.422971 c 0,-0.04846 0.0363,-0.411905 -0.35133,-0.411905 -0.21807,0 -0.29076,0.193837 -0.37556,0.37556 -0.3271,0.969189 -1.07823,1.635506 -2.05953,1.756654 z m 0,-4.264429 c 0.50883,0.133263 0.73901,0.605743 0.84804,1.066107 0.0606,0.205953 0.13326,0.39979 0.38768,0.39979 0.37556,0 0.31498,-0.436134 0.31498,-0.533053 v -2.616809 c 0,-0.09692 0.0606,-0.533054 -0.31498,-0.533054 -0.25442,0 -0.3271,0.193838 -0.38768,0.399791 -0.10903,0.460364 -0.33921,0.932844 -0.84804,1.066107 z"
             style="fill:#d40000;stroke-width:0.30287138"
             id="path3898" />
          <path
             d="m 166.80833,67.492654 c 0,0.44825 0.0121,0.520939 -0.4119,0.654202 -0.1575,0.04846 -0.26653,0.157493 -0.26653,0.327101 0,0.351331 0.39979,0.375561 0.44825,0.375561 h 3.4285 c 0.0485,0 0.44825,-0.02423 0.44825,-0.375561 0,-0.169608 -0.10903,-0.278641 -0.26652,-0.327101 -0.42402,-0.133263 -0.41191,-0.205952 -0.41191,-0.654202 v -7.705048 h -2.96814 z m 5.25785,-7.705048 h -1.74454 v 0.702662 c 0.62997,0.44825 0.79958,1.24783 0.90861,1.889917 0.0363,0.266527 0.0969,0.581513 0.43614,0.581513 0.36344,0 0.39979,-0.302871 0.39979,-0.35133 z m -7.54756,2.822762 c 0,0.04846 0.0363,0.35133 0.3998,0.35133 0.33921,0 0.39979,-0.314986 0.43613,-0.581513 0.10903,-0.642087 0.27864,-1.441667 0.90861,-1.889917 v -0.702662 h -1.74454 z"
             style="fill:#d40000;stroke-width:0.30287138"
             id="path3900" />
          <path
             d="m 174.78521,61.483686 h -0.0363 l -1.45378,5.318421 c -0.23018,0.860155 -0.55729,1.138797 -0.8117,1.27206 -0.26652,0.133264 -0.47248,0.121149 -0.47248,0.411905 0,0.351331 0.43614,0.363446 0.67844,0.363446 h 1.3932 c 0.2423,0 0.62998,0.01211 0.62998,-0.327101 0,-0.242297 -0.16961,-0.314986 -0.36345,-0.39979 -0.4119,-0.181723 -0.58151,-0.387676 -0.38767,-1.126682 l 1.13879,-4.14328 z m 1.85357,5.948394 c 0.10903,0.472479 0.0606,0.557283 -0.25441,0.739006 -0.1575,0.0848 -0.23019,0.145378 -0.23019,0.339216 0,0.314986 0.35133,0.339216 0.59363,0.339216 h 3.0166 c 0.23018,0 0.66632,0.01211 0.66632,-0.314986 0,-0.218068 -0.13327,-0.302872 -0.30287,-0.375561 -0.33922,-0.145378 -0.35133,-0.37556 -0.42402,-0.714776 l -1.81723,-7.656589 h -2.67738 l -0.1575,0.654203 1.2236,5.354765 h -1.47801 l -0.16961,0.702662 h 1.76877 z"
             style="fill:#d40000;stroke-width:0.30287138"
             id="path3902" />
        </g>
      </g>
    </g>
  </g>
</svg>
