<svg id="Lager_1" data-name="Lager 1" xmlns="http://www.w3.org/2000/svg" viewBox="0 0 344.85 74.12"><defs><style>.cls-1{fill:#75ac4a;}.cls-2{fill:#f99122;stroke:#f99122;stroke-miterlimit:10;}</style></defs><title>GreenCobraLogo</title><path class="cls-1" d="M163,160a40.66,40.66,0,0,1-13.43,2.4c-6.62,0-12.07-1.68-16.35-5.77-3.77-3.64-6.1-9.48-6.1-16.29.06-13,9-22.58,23.68-22.58a27.07,27.07,0,0,1,10.91,2l-1.37,4.61a22.59,22.59,0,0,0-9.67-1.89c-10.64,0-17.58,6.62-17.58,17.59s6.68,17.65,16.87,17.65c3.7,0,6.23-.52,7.53-1.17v-13h-8.89V139H163Z" transform="translate(-127.15 -115.4)"/><path class="cls-1" d="M171.47,140.37c0-3.7-.07-6.88-.26-9.8h5l.19,6.17h.26c1.43-4.22,4.87-6.88,8.7-6.88a6.16,6.16,0,0,1,1.62.19v5.39a8.54,8.54,0,0,0-1.95-.2c-4,0-6.88,3-7.66,7.34a16,16,0,0,0-.26,2.66V162h-5.64Z" transform="translate(-127.15 -115.4)"/><path class="cls-1" d="M195.22,147.31c.13,7.73,5.06,10.91,10.77,10.91a20.62,20.62,0,0,0,8.7-1.63l1,4.09a25.4,25.4,0,0,1-10.45,1.95c-9.67,0-15.44-6.36-15.44-15.84s5.58-16.93,14.73-16.93c10.25,0,13,9,13,14.79a20.26,20.26,0,0,1-.2,2.66ZM212,143.23c.07-3.64-1.49-9.28-7.91-9.28-5.78,0-8.31,5.32-8.77,9.28Z" transform="translate(-127.15 -115.4)"/><path class="cls-1" d="M227.73,147.31c.13,7.73,5.06,10.91,10.77,10.91a20.62,20.62,0,0,0,8.7-1.63l1,4.09a25.4,25.4,0,0,1-10.45,1.95c-9.66,0-15.44-6.36-15.44-15.84s5.58-16.93,14.73-16.93c10.25,0,13,9,13,14.79a22.66,22.66,0,0,1-.19,2.66Zm16.74-4.08c.07-3.64-1.49-9.28-7.91-9.28-5.78,0-8.31,5.32-8.76,9.28Z" transform="translate(-127.15 -115.4)"/><path class="cls-1" d="M257.06,139.07c0-3.24-.06-5.9-.26-8.5h5.06l.33,5.19h.13a11.56,11.56,0,0,1,10.38-5.9c4.35,0,11.1,2.59,11.1,13.37V162h-5.71V143.87c0-5.06-1.88-9.28-7.27-9.28a8.39,8.39,0,0,0-8.05,8.51V162h-5.71Z" transform="translate(-127.15 -115.4)"/><path class="cls-2" d="M323.84,160.55c-2.08,1-6.23,2.08-11.55,2.08-12.33,0-21.61-7.79-21.61-22.13,0-13.69,9.28-23,22.84-23,5.45,0,8.89,1.17,10.38,1.94l-1.36,4.61a20.53,20.53,0,0,0-8.83-1.82c-10.25,0-17.06,6.56-17.06,18,0,10.7,6.16,17.58,16.8,17.58a22.68,22.68,0,0,0,9.22-1.81Z" transform="translate(-127.15 -115.4)"/><path class="cls-2" d="M358.42,146c0,11.61-8,16.67-15.64,16.67-8.5,0-15-6.23-15-16.15,0-10.52,6.88-16.68,15.57-16.68C352.32,129.86,358.42,136.41,358.42,146Zm-24.92.32c0,6.88,4,12.07,9.54,12.07s9.54-5.13,9.54-12.2c0-5.32-2.66-12.07-9.41-12.07S333.5,140.37,333.5,146.34Z" transform="translate(-127.15 -115.4)"/><path class="cls-2" d="M365.37,162c.13-2.14.26-5.32.26-8.11v-38h5.64v19.73h.13c2-3.5,5.65-5.77,10.71-5.77,7.79,0,13.3,6.49,13.24,16,0,11.22-7.08,16.8-14.08,16.8-4.55,0-8.18-1.75-10.52-5.9h-.19L370.3,162Zm5.9-12.59a10.76,10.76,0,0,0,.26,2.08,8.8,8.8,0,0,0,8.57,6.68c6,0,9.54-4.87,9.54-12.07,0-6.29-3.25-11.68-9.35-11.68a9.09,9.09,0,0,0-8.69,7,11.24,11.24,0,0,0-.33,2.33Z" transform="translate(-127.15 -115.4)"/><path class="cls-2" d="M402.55,140.37c0-3.7-.07-6.88-.26-9.8h5l.19,6.17h.26c1.43-4.22,4.87-6.88,8.7-6.88a6.16,6.16,0,0,1,1.62.19v5.39a8.6,8.6,0,0,0-1.95-.2c-4,0-6.88,3-7.66,7.34a16,16,0,0,0-.25,2.66V162h-5.65Z" transform="translate(-127.15 -115.4)"/><path class="cls-2" d="M440.84,162l-.46-4h-.19a11.69,11.69,0,0,1-9.61,4.67c-6.36,0-9.6-4.47-9.6-9,0-7.59,6.75-11.74,18.88-11.68v-.65c0-2.59-.71-7.26-7.14-7.26a15.58,15.58,0,0,0-8.17,2.33l-1.3-3.76a19.48,19.48,0,0,1,10.32-2.79c9.6,0,11.94,6.55,11.94,12.85v11.74A44.14,44.14,0,0,0,446,162ZM440,146c-6.23-.13-13.3,1-13.3,7.07a5.06,5.06,0,0,0,5.39,5.46,7.82,7.82,0,0,0,7.59-5.26,6.06,6.06,0,0,0,.32-1.82Z" transform="translate(-127.15 -115.4)"/><path d="M308.46,178.33a3.71,3.71,0,0,1-.37,1.73,3.41,3.41,0,0,1-1,1.2,4.09,4.09,0,0,1-1.38.7,5.88,5.88,0,0,1-1.56.22h-2.85v-7.66h2.77a6.73,6.73,0,0,1,1.6.19,4.15,4.15,0,0,1,1.4.63,3.28,3.28,0,0,1,1,1.17A4,4,0,0,1,308.46,178.33Zm-1.92,0a2.48,2.48,0,0,0-.21-1.08,1.88,1.88,0,0,0-.56-.68,2.24,2.24,0,0,0-.8-.36,4.08,4.08,0,0,0-.93-.11h-.92v4.48H304a3.83,3.83,0,0,0,1-.12,2.3,2.3,0,0,0,.81-.37,1.83,1.83,0,0,0,.56-.69A2.46,2.46,0,0,0,306.54,178.33Z" transform="translate(-127.15 -115.4)"/><path d="M309.69,182.18v-7.66h1.86v7.66Z" transform="translate(-127.15 -115.4)"/><path d="M318.62,182.19a7.11,7.11,0,0,1-1.64.18,4.67,4.67,0,0,1-1.7-.29,4,4,0,0,1-1.33-.82,3.78,3.78,0,0,1-.87-1.27,4.15,4.15,0,0,1-.31-1.65,4.29,4.29,0,0,1,.32-1.67,3.67,3.67,0,0,1,.88-1.27,3.93,3.93,0,0,1,1.32-.8,4.58,4.58,0,0,1,1.63-.28,5.12,5.12,0,0,1,1.69.27,3.64,3.64,0,0,1,1.27.74l-1.17,1.33a2,2,0,0,0-.72-.51,2.44,2.44,0,0,0-1-.2,2.16,2.16,0,0,0-2.08,1.43,2.49,2.49,0,0,0-.17,1,3,3,0,0,0,.15,1,2.12,2.12,0,0,0,.45.77,2.09,2.09,0,0,0,.73.49,2.66,2.66,0,0,0,1,.18,4,4,0,0,0,.62-.05,2.26,2.26,0,0,0,.54-.15v-1.4h-1.46v-1.49h3.16v4.05A5.58,5.58,0,0,1,318.62,182.19Z" transform="translate(-127.15 -115.4)"/><path d="M321.44,182.18v-7.66h1.86v7.66Z" transform="translate(-127.15 -115.4)"/><path d="M328.16,176.1v6.08h-1.85V176.1h-2.16v-1.58h6.17v1.58Z" transform="translate(-127.15 -115.4)"/><path d="M335.71,182.18l-.6-1.5h-3l-.56,1.5h-2l3.21-7.66h1.79l3.18,7.66Zm-2.06-5.61-1,2.62h1.93Z" transform="translate(-127.15 -115.4)"/><path d="M338.4,182.18v-7.66h1.86v6h3v1.61Z" transform="translate(-127.15 -115.4)"/><path d="M346.54,182.18v-7.66h1.86v7.66Z" transform="translate(-127.15 -115.4)"/><path d="M354.84,182.18l-3.08-5h0l0,5H350v-7.66h2.11l3.08,5h0l-.05-5h1.8v7.66Z" transform="translate(-127.15 -115.4)"/><path d="M362.32,182.18h-1.85l-2.9-7.66h2.07l1.78,5.43h0l1.76-5.43h2Z" transform="translate(-127.15 -115.4)"/><path d="M365.89,182.18v-7.66H371v1.56h-3.36v1.45h3.18V179h-3.18v1.59h3.56v1.58Z" transform="translate(-127.15 -115.4)"/><path d="M377.33,182.18l-3.09-5h0l0,5h-1.79v-7.66h2.11l3.07,5h0l0-5h1.79v7.66Z" transform="translate(-127.15 -115.4)"/><path d="M384.28,176.1v6.08h-1.85V176.1h-2.16v-1.58h6.17v1.58Z" transform="translate(-127.15 -115.4)"/><path d="M394.94,178.32a4.27,4.27,0,0,1-.31,1.66,3.77,3.77,0,0,1-2.2,2.11,4.9,4.9,0,0,1-3.32,0,3.79,3.79,0,0,1-2.19-2.11,4.27,4.27,0,0,1-.31-1.66,4.2,4.2,0,0,1,.31-1.66,3.55,3.55,0,0,1,.87-1.26,3.83,3.83,0,0,1,1.32-.8,5.06,5.06,0,0,1,3.32,0,3.78,3.78,0,0,1,1.33.8,3.55,3.55,0,0,1,.87,1.26A4.2,4.2,0,0,1,394.94,178.32Zm-2,0a2.6,2.6,0,0,0-.16-.93,2.19,2.19,0,0,0-.45-.74,2,2,0,0,0-.69-.49,2.29,2.29,0,0,0-1.78,0,2.12,2.12,0,0,0-.69.49,2.19,2.19,0,0,0-.45.74,2.84,2.84,0,0,0-.16.93,2.67,2.67,0,0,0,.17,1,2.13,2.13,0,0,0,.45.76,2.08,2.08,0,0,0,.68.49,2.29,2.29,0,0,0,1.78,0,2.23,2.23,0,0,0,.69-.49,2.29,2.29,0,0,0,.45-.76A2.67,2.67,0,0,0,393,178.32Z" transform="translate(-127.15 -115.4)"/><path d="M400.27,182.18l-1.67-3H398v3h-1.8v-7.66h2.92a5.47,5.47,0,0,1,1.07.11,2.83,2.83,0,0,1,.94.39,2.07,2.07,0,0,1,.67.71,2.33,2.33,0,0,1,.25,1.11,2,2,0,0,1-.42,1.3,2.33,2.33,0,0,1-1.17.76l2,3.28Zm-.08-5.31a.82.82,0,0,0-.11-.44.83.83,0,0,0-.3-.26,1.25,1.25,0,0,0-.4-.12,2.15,2.15,0,0,0-.43,0h-1v1.79h.88a2.56,2.56,0,0,0,.47,0,1.21,1.21,0,0,0,.43-.14.67.67,0,0,0,.32-.28A.77.77,0,0,0,400.19,176.87Z" transform="translate(-127.15 -115.4)"/><path d="M407,178.93v3.25H405.1v-3.25l-2.88-4.41h2.24l1.63,2.84,1.64-2.84h2.16Z" transform="translate(-127.15 -115.4)"/><path class="cls-1" d="M472,134.35c-.1-.21-.81.26-1.6-.09a2,2,0,0,0-.71-.24,1.93,1.93,0,0,1-.61-.05.9.9,0,0,1-.43-.37,5.22,5.22,0,0,0-1.55-2.78,6.29,6.29,0,0,0-2.41-1.23,6,6,0,0,0-5.66.09,5.11,5.11,0,0,0-1.27.85c-.45.43-.42.59-.9,1.13-.62.72-.83.54-1.41,1.23s-.59,1-1.18,1.65a9.54,9.54,0,0,1-1.23,1.13,13.72,13.72,0,0,0-2,1.94c-.79,1.08-.7,2.39-.52,5a26.38,26.38,0,0,0,.42,3.12,32.58,32.58,0,0,0,1.32,4.62,18.78,18.78,0,0,0,2.31,5c.65.9,1.26,1.82,1.94,2.69a4.73,4.73,0,0,1,1,1.75,7.17,7.17,0,0,1,0,2.12c0,1.38.17,1.37.15,2.69,0,.31-.09,1-.24,2.4-.17,1.57-.24,1.87-.47,2.22-.12.17-.3.39-.76,1-.18.25-.32.47-.42.61-.31,0-.77-.1-1.32-.14s-.76,0-1.6-.05c-1.73,0-2.12-.09-3.21,0l-.8,0a4.58,4.58,0,0,0,.05-1.23,3.49,3.49,0,0,0-.29-1.13c-.11-.22-.44-.76-1.93-1.27a10.74,10.74,0,0,0-3.58-.52,15.25,15.25,0,0,0-3,.33,13.92,13.92,0,0,0-3.15,1c-.48.23-.87.45-1.14.61a1.15,1.15,0,0,0-.8.66.86.86,0,0,0,0,.52.84.84,0,0,0,.29.38,12.2,12.2,0,0,0,1.5-.05,20.22,20.22,0,0,0,2.36-.47,12.9,12.9,0,0,1,2.88-.47c.26,0,.91.05,1.65.14l.75.09c-.15.05-.38.12-.66.19a12.59,12.59,0,0,1-3.06.38c-1.57,0-3.11.32-4.67.47-.91.09-3.4.34-6.32.71-3.87.49-4.8.72-5.8,1.08-2.59.95-3.42,2-3.68,2.31a5.86,5.86,0,0,0-1.13,3.3,5.69,5.69,0,0,0,1.61,4,7.07,7.07,0,0,0,2.68,1.37A13.47,13.47,0,0,0,429,184l1.18-.14a10.63,10.63,0,0,0,2.31-.28c.7-.23.64-.41,1.23-.52s.9.07,1.41-.14.31-.32.9-.66.69-.27,1.18-.57a3.87,3.87,0,0,0,.66-.52,5,5,0,0,0,.19,1.75,5.63,5.63,0,0,0,1.51,2.4c.17.18.18.17,1,.9a2.24,2.24,0,0,0,.52.38c.29.13.36.06.62.19s.34.35.66.47.24,0,.51,0c.46.1.53.39,1,.52.3.09.27,0,.57.05.53.14.63.51,1.13.61.25.06.22,0,.52,0,.69.1.88.58,1.46.57.22,0,.17-.07.43-.1.82-.06,1.35.64,1.65.43.1-.07,0-.15.14-.24.33-.26,1,.52,1.79.33a2,2,0,0,1,.42-.09,3.46,3.46,0,0,1,.76.14c.58,0,.74-.19,1.32-.19a7.92,7.92,0,0,0,1.56.1c.5-.08.43-.22,1.08-.38s.78,0,1.56-.19c.54-.11.47-.18,1-.28s.71-.06,1.18-.19.35-.18.85-.33a5.08,5.08,0,0,0,1.09-.33c.28-.16.21-.21.47-.33.46-.23.66-.07,1.13-.28.3-.15.24-.23.56-.38s.6-.11.95-.24.35-.28.89-.75c.72-.63.82-.47,1.32-1a9,9,0,0,0,.76-.95l.19-.28c.3-.45.34-.49.37-.61s0-.24.05-.47a1.92,1.92,0,0,1,.19-.38,2.33,2.33,0,0,0,.19-.57c0-.14,0-.28,0-.42a2.32,2.32,0,0,0,.09-1.27,2.72,2.72,0,0,0-.14-.43v-.85a1.54,1.54,0,0,0-.19-.7c-.12-.2-.24-.23-.28-.43s0-.18,0-.33-.08-.29-.66-.89c-.17-.17-.16-.15-.24-.24a12.94,12.94,0,0,1-.85-1.18,3.15,3.15,0,0,0-.66-.66,5,5,0,0,0-.85-.42c-.71-.35-.61-.38-1-.52-.73-.29-.89-.09-1.22-.38s-.31-.37-.62-.47a1.15,1.15,0,0,0-.33-.05.8.8,0,0,0,.19-.28c.09-.23,0-.33.05-.57s.27-.38.42-.89c.07-.23,0-.23.1-.43s.26-.4.33-.66a1.1,1.1,0,0,0,0-.52,1.66,1.66,0,0,0,.56-1.32,1.38,1.38,0,0,0-.09-.33c.38-.66.4-1,.33-1.22a.85.85,0,0,1-.05-.38c0-.2.13-.23.19-.42s0-.24-.05-.8c0-.19,0-.34,0-.43a1.35,1.35,0,0,0,.19-.28,2.6,2.6,0,0,0,.09-1.09v-.42a3.8,3.8,0,0,0,0-1.56,5.53,5.53,0,0,1-.19-.8,4.89,4.89,0,0,1,.05-1.18s0-.31,0-1.22a15.09,15.09,0,0,0-.19-2.36c-.1-.81-.2-1.67-.24-2.55a26,26,0,0,1,.14-3.63c0-.42.14-1.16.33-2.64.25-1.91.38-2.86.47-3.44a33.77,33.77,0,0,1,.71-3.54c.26-.94.41-1.91.76-2.83a3.6,3.6,0,0,0,.23-1.08,2.36,2.36,0,0,0,0-.38,1.32,1.32,0,0,0,1-.52l.05-.09a3.23,3.23,0,0,1,.47.23,6.39,6.39,0,0,1,.61.48c.43.35.42.35.47.37.42.19.94.05,1-.14a1.66,1.66,0,0,1,.05-.28.93.93,0,0,1,.05-.1,3.94,3.94,0,0,0,.56,0,.87.87,0,0,0,.38-.1C471.85,134.72,472.05,134.48,472,134.35ZM463.6,180c.47.13.81.16,1,.47a.7.7,0,0,1,.15.48c-.06.32-.47.45-1.09.75-.8.39-.66.43-1.27.71a10.55,10.55,0,0,1-2.36.66c-1.16.25-1.74.37-2.31.47a29,29,0,0,1-4,.42c-.55,0-1.5,0-3.4-.09a5.34,5.34,0,0,1-1.74-.28,4.82,4.82,0,0,1-1.51-.9,2.36,2.36,0,0,1,.71-.61,3.17,3.17,0,0,1,1.18-.33c1-.18.8-.24,2-.47.9-.18.73-.1,1.42-.24a16.76,16.76,0,0,1,2.17-.47c.58-.05.58,0,1-.05a3.88,3.88,0,0,0,1.6-.71,9.3,9.3,0,0,1,2.92-1.22l.62.28,1,.38C463.24,179.84,463,179.88,463.6,180Z" transform="translate(-127.15 -115.4)"/></svg>