<svg id="Lager_1" data-name="Lager 1" xmlns="http://www.w3.org/2000/svg" viewBox="0 0 205.26 48.78"><defs><style>.cls-1,.cls-3,.cls-5{isolation:isolate;}.cls-2{fill:#63af37;}.cls-3,.cls-5{font-size:38.63px;fill:#f08800;font-family:MyriadHebrew-Regular, Myriad Hebrew;}.cls-3{letter-spacing:-0.01em;}.cls-4{fill:none;stroke:#f08800;stroke-miterlimit:10;}.cls-6{fill:#010000;}</style></defs><title>logo</title><g class="cls-1"><path class="cls-2" d="M22.81,31.51a24.26,24.26,0,0,1-8,1.45c-3.94,0-7.19-1-9.74-3.42a13.4,13.4,0,0,1-3.65-9.69c0-7.73,5.34-13.46,14.08-13.47A16.66,16.66,0,0,1,22,7.55l-.81,2.74a13.49,13.49,0,0,0-5.76-1.11C9.09,9.2,5,13.15,5,19.68s4,10.5,10.06,10.49a11,11,0,0,0,4.48-.7V21.7H14.22V19l8.58,0Z" transform="translate(-1.43 0)"/></g><g class="cls-1"><path class="cls-2" d="M27.81,19.79c0-2.2-.08-4.06-.17-5.79h3l.12,3.67h.12a5.73,5.73,0,0,1,5.21-4.11,3.34,3.34,0,0,1,.93.08v3.21a4.56,4.56,0,0,0-1.12-.11c-2.43,0-4.09,1.82-4.55,4.37a6.79,6.79,0,0,0-.15,1.55l0,10H27.83Z" transform="translate(-1.43 0)"/></g><g class="cls-1"><path class="cls-2" d="M42,23.9c.09,4.6,3,6.48,6.43,6.48a12.17,12.17,0,0,0,5.18-1l.58,2.43A14.88,14.88,0,0,1,47.92,33c-5.76,0-9.2-3.81-9.21-9.41S42,13.54,47.5,13.53c6.07,0,7.7,5.32,7.71,8.76a7.44,7.44,0,0,1-.15,1.58Zm10-2.45C52,19.32,51,16,47.2,16c-3.44,0-4.94,3.14-5.21,5.5Z" transform="translate(-1.43 0)"/><path class="cls-2" d="M61.31,23.86c.09,4.6,3,6.48,6.43,6.48a12.17,12.17,0,0,0,5.18-1l.58,2.43A14.88,14.88,0,0,1,67.28,33c-5.76,0-9.2-3.81-9.21-9.41s3.3-10.09,8.79-10.1c6.07,0,7.7,5.32,7.71,8.76a7.44,7.44,0,0,1-.15,1.58Zm10-2.45c0-2.12-.9-5.48-4.72-5.48-3.44,0-4.94,3.14-5.21,5.5Z" transform="translate(-1.43 0)"/><path class="cls-2" d="M78.76,18.92c0-1.93-.08-3.52-.16-5h3l.16,3.05h.12a6.92,6.92,0,0,1,6.18-3.49c2.55,0,6.57,1.53,6.58,7.91l0,11.17H91.31l0-10.74c0-3.05-1.13-5.56-4.34-5.56a5.13,5.13,0,0,0-4.82,5.07l0,11.24H78.79Z" transform="translate(-1.43 0)"/></g><text class="cls-3" transform="translate(95.97 32.52) rotate(-0.11)">C</text><g class="cls-1"><path class="cls-4" d="M118.53,31.67a17.41,17.41,0,0,1-6.91,1.25c-7.3,0-12.84-4.65-12.85-13.19,0-8.15,5.5-13.65,13.57-13.67a14.27,14.27,0,0,1,6.18,1.11l-.81,2.75a12.23,12.23,0,0,0-5.26-1.07c-6.1,0-10.15,3.92-10.14,10.76,0,6.38,3.69,10.46,10,10.45A13.47,13.47,0,0,0,117.83,29Z" transform="translate(-1.43 0)"/></g><text class="cls-5" transform="translate(117.95 32.48) rotate(-0.11)">ob</text><g class="cls-1"><path class="cls-4" d="M139.1,23.09c0,6.92-5,9.78-9.37,9.79-4.91,0-8.89-3.65-8.91-9.68,0-6.26,4.23-9.82,9.29-9.83C135.34,13.36,139.09,17.1,139.1,23.09Zm-14.84.11c0,3.75,1.91,7.15,5.69,7.14s5.71-3.41,5.7-7.2c0-3.25-1.52-7.26-5.73-7.25S124.26,19.88,124.27,23.2Z" transform="translate(-1.43 0)"/><path class="cls-4" d="M143.36,5h3.36l0,11.75h.08a6.94,6.94,0,0,1,6.37-3.41c4.64,0,7.93,3.85,7.94,9.49,0,6.69-4.27,10-8.4,10a6.79,6.79,0,0,1-6.3-3.46h-.08l-.15,3.05h-2.94c.07-1.28.15-3.17.14-4.79Zm3.4,19.93a4.33,4.33,0,0,0,.16,1.24,5.24,5.24,0,0,0,5.11,4c3.59,0,5.67-2.91,5.67-7.2,0-3.75-1.95-7-5.62-6.94a5.41,5.41,0,0,0-5.13,4.18,7,7,0,0,0-.19,1.39Z" transform="translate(-1.43 0)"/></g><text class="cls-5" transform="translate(161.13 32.39) rotate(-0.11)">r</text><g class="cls-1"><path class="cls-4" d="M165.36,19.53c0-2.2-.08-4.06-.17-5.79h3l.12,3.67h.12a5.73,5.73,0,0,1,5.21-4.11,3.33,3.33,0,0,1,.93.08v3.21a4.56,4.56,0,0,0-1.12-.11c-2.43,0-4.09,1.82-4.55,4.37a6.76,6.76,0,0,0-.15,1.55l0,10h-3.36Z" transform="translate(-1.43 0)"/></g><text class="cls-5" transform="translate(173.57 32.37) rotate(-0.11)">a</text><g class="cls-1"><path class="cls-4" d="M190.95,27.86a31.4,31.4,0,0,0,.28,4.48h-3.05L187.86,30h-.08a7.07,7.07,0,0,1-5.71,2.79,5.37,5.37,0,0,1-5.73-5.36c0-4.52,4-7,11.23-6.94v-.42c0-1.54-.47-4.33-4.26-4.32a9.21,9.21,0,0,0-4.87,1.4l-.78-2.24a11.69,11.69,0,0,1,6.14-1.63c5.72,0,7.12,3.89,7.12,7.64Zm-3.29-5c-3.71-.11-7.92.56-7.91,4.19A3,3,0,0,0,183,30.27a4.71,4.71,0,0,0,4.55-3.14,5.54,5.54,0,0,0,.15-1.08Z" transform="translate(-1.43 0)"/></g><g class="cls-1"><path class="cls-6" d="M109.4,42.23a2.24,2.24,0,0,1-.22,1,2.09,2.09,0,0,1-.58.72,2.44,2.44,0,0,1-.82.41,3.37,3.37,0,0,1-.93.13h-1.7V40h1.65a4.12,4.12,0,0,1,1,.11,2.4,2.4,0,0,1,.84.37,1.92,1.92,0,0,1,.59.7A2.35,2.35,0,0,1,109.4,42.23Zm-1.15,0a1.44,1.44,0,0,0-.13-.64,1.07,1.07,0,0,0-.33-.4,1.32,1.32,0,0,0-.48-.21,2.29,2.29,0,0,0-.55-.06h-.55v2.67h.52a2.43,2.43,0,0,0,.57-.07,1.35,1.35,0,0,0,.48-.22,1.1,1.1,0,0,0,.33-.41A1.44,1.44,0,0,0,108.26,42.23Z" transform="translate(-1.43 0)"/><path class="cls-6" d="M110.13,44.52V40h1.11v4.56Z" transform="translate(-1.43 0)"/><path class="cls-6" d="M115.45,44.52a4.18,4.18,0,0,1-1,.11,2.87,2.87,0,0,1-1-.17,2.32,2.32,0,0,1-.79-.49,2.21,2.21,0,0,1-.52-.75,2.47,2.47,0,0,1-.19-1,2.5,2.5,0,0,1,.19-1,2.21,2.21,0,0,1,.52-.76,2.32,2.32,0,0,1,.79-.48,2.75,2.75,0,0,1,1-.17,3,3,0,0,1,1,.16,2.09,2.09,0,0,1,.75.44l-.69.79a1.2,1.2,0,0,0-.43-.31,1.44,1.44,0,0,0-.6-.12,1.31,1.31,0,0,0-.53.11,1.26,1.26,0,0,0-.42.3,1.35,1.35,0,0,0-.28.45,1.59,1.59,0,0,0-.1.57,1.77,1.77,0,0,0,.09.58,1.2,1.2,0,0,0,.71.75,1.6,1.6,0,0,0,.6.11l.37,0a1.38,1.38,0,0,0,.32-.09v-.83h-.87v-.89h1.88v2.42A3.52,3.52,0,0,1,115.45,44.52Z" transform="translate(-1.43 0)"/><path class="cls-6" d="M117.13,44.51V39.95h1.11V44.5Z" transform="translate(-1.43 0)"/></g><g class="cls-1"><path class="cls-6" d="M121.12,40.88V44.5H120V40.88h-1.29v-.94h3.68v.94Z" transform="translate(-1.43 0)"/></g><g class="cls-1"><path class="cls-6" d="M125.62,44.49l-.36-.89H123.5l-.33.9H122l1.9-4.56h1.07l1.9,4.56Zm-1.23-3.34-.58,1.57H125Z" transform="translate(-1.43 0)"/></g><g class="cls-1"><path class="cls-6" d="M127.23,44.49V39.93h1.11v3.6h1.76v1Z" transform="translate(-1.43 0)"/></g><g class="cls-1"><path class="cls-6" d="M132.07,44.48V39.92h1.11v4.56Z" transform="translate(-1.43 0)"/><path class="cls-6" d="M137,44.47l-1.84-3h0l0,3h-1.07V39.91h1.26l1.83,3h0l0-3h1.07v4.56Z" transform="translate(-1.43 0)"/><path class="cls-6" d="M141.47,44.46h-1.1l-1.74-4.56h1.24l1.06,3.23h0l1-3.24h1.22Z" transform="translate(-1.43 0)"/><path class="cls-6" d="M143.6,44.46V39.9h3.07v.93h-2v.86h1.89v.88h-1.89v.95h2.12v.94Z" transform="translate(-1.43 0)"/><path class="cls-6" d="M150.4,44.44l-1.84-3h0l0,3h-1.07V39.89h1.26l1.83,3h0l0-3h1.07v4.56Z" transform="translate(-1.43 0)"/></g><g class="cls-1"><path class="cls-6" d="M154.52,40.82v3.62h-1.1V40.82h-1.29v-.94h3.68v.94Z" transform="translate(-1.43 0)"/></g><g class="cls-1"><path class="cls-6" d="M160.88,42.12a2.53,2.53,0,0,1-.18,1,2.25,2.25,0,0,1-.52.77,2.33,2.33,0,0,1-.79.49,2.78,2.78,0,0,1-1,.18,2.73,2.73,0,0,1-1-.17,2.29,2.29,0,0,1-.79-.49,2.25,2.25,0,0,1-.52-.77,2.55,2.55,0,0,1-.19-1,2.51,2.51,0,0,1,.18-1,2.17,2.17,0,0,1,.52-.75,2.33,2.33,0,0,1,.78-.48,3,3,0,0,1,2,0,2.31,2.31,0,0,1,.79.47,2.16,2.16,0,0,1,.52.75A2.53,2.53,0,0,1,160.88,42.12Zm-1.18,0a1.56,1.56,0,0,0-.1-.55,1.31,1.31,0,0,0-.27-.44,1.24,1.24,0,0,0-.41-.29,1.3,1.3,0,0,0-.53-.11,1.25,1.25,0,0,0-1.21.84,1.71,1.71,0,0,0,0,1.12,1.34,1.34,0,0,0,.27.45,1.24,1.24,0,0,0,.41.29,1.36,1.36,0,0,0,1.06,0,1.29,1.29,0,0,0,.41-.29,1.35,1.35,0,0,0,.27-.45A1.65,1.65,0,0,0,159.7,42.13Z" transform="translate(-1.43 0)"/></g><g class="cls-1"><path class="cls-6" d="M164.05,44.42l-1-1.81h-.38v1.81h-1.08V39.86h1.74a3,3,0,0,1,.64.07,1.7,1.7,0,0,1,.56.23,1.21,1.21,0,0,1,.4.42,1.34,1.34,0,0,1,.15.66,1.21,1.21,0,0,1-.25.78,1.36,1.36,0,0,1-.69.45l1.2,1.95ZM164,41.25a.46.46,0,0,0-.07-.26.47.47,0,0,0-.18-.15.74.74,0,0,0-.24-.07l-.26,0h-.59v1.06h.52l.28,0a.89.89,0,0,0,.26-.08.49.49,0,0,0,.19-.17A.5.5,0,0,0,164,41.25Z" transform="translate(-1.43 0)"/></g><g class="cls-1"><path class="cls-6" d="M168,42.48v1.93h-1.1V42.48l-1.72-2.62h1.33l1,1.69,1-1.69h1.29Z" transform="translate(-1.43 0)"/></g><path class="cls-2" d="M206.68,15.86c-.06-.13-.48.16-1-.05a1.15,1.15,0,0,0-.42-.14,1.24,1.24,0,0,1-.36,0,.53.53,0,0,1-.25-.22,3.13,3.13,0,0,0-.93-1.65,3.74,3.74,0,0,0-1.43-.73,4.17,4.17,0,0,0-2.27-.33,4.07,4.07,0,0,0-1.09.4,3,3,0,0,0-.76.51,8,8,0,0,0-.53.67c-.37.42-.5.32-.84.73s-.35.57-.7,1a6,6,0,0,1-.73.68,8.36,8.36,0,0,0-1.2,1.15c-.46.65-.41,1.42-.3,3a15.07,15.07,0,0,0,.26,1.85,18.79,18.79,0,0,0,.79,2.75,11,11,0,0,0,1.38,3c.39.53.75,1.08,1.15,1.6a2.8,2.8,0,0,1,.62,1,4.45,4.45,0,0,1,0,1.26c0,.82.1.82.09,1.6a7.93,7.93,0,0,1-.14,1.43,4.21,4.21,0,0,1-.28,1.32c-.14.21-.18.23-.45.62l-.25.37c-.18,0-.46-.06-.79-.08s-.45,0-1,0c-1,0-1.26-.05-1.91,0h-.48a2.58,2.58,0,0,0,0-.73,2.07,2.07,0,0,0-.17-.67c-.07-.13-.26-.45-1.15-.76a6.45,6.45,0,0,0-2.13-.3,9.06,9.06,0,0,0-1.77.2,8.47,8.47,0,0,0-1.88.62,7.53,7.53,0,0,0-.67.37.68.68,0,0,0-.48.39.46.46,0,0,0,.17.53,6.59,6.59,0,0,0,.9,0,11.09,11.09,0,0,0,1.4-.28,7.73,7.73,0,0,1,1.71-.28,5.77,5.77,0,0,1,1,.08l.45.06-.39.11a7.31,7.31,0,0,1-1.82.23,26.2,26.2,0,0,0-2.78.29c-.54.05-2,.21-3.76.43a14.87,14.87,0,0,0-3.45.65,4.42,4.42,0,0,0-2.19,1.38,3.44,3.44,0,0,0-.67,2,3.38,3.38,0,0,0,1,2.38,4.23,4.23,0,0,0,1.6.81,8,8,0,0,0,3.34.53l.7-.09a6.48,6.48,0,0,0,1.37-.17c.41-.14.38-.24.73-.31s.53,0,.84-.09.18-.19.53-.39.41-.16.7-.34a2.31,2.31,0,0,0,.39-.31,3,3,0,0,0,.11,1,3.1,3.1,0,0,0,.59,1.09,4.22,4.22,0,0,0,.31.34c.11.11.11.1.62.53a1.29,1.29,0,0,0,.31.22c.17.08.21,0,.37.11s.21.21.39.28.15,0,.31,0,.31.23.59.31.16,0,.34,0,.37.3.67.36h.31c.41.05.53.34.87.34.13,0,.1,0,.25-.06.49,0,.8.38,1,.25s0-.09.08-.14.6.3,1.07.19l.25-.06a2,2,0,0,1,.45.08c.34,0,.44-.12.79-.11a4.92,4.92,0,0,0,.93.05c.3,0,.26-.13.65-.23s.46,0,.93-.11.28-.11.62-.17a6.84,6.84,0,0,0,.7-.11c.26-.07.21-.11.5-.2a2.86,2.86,0,0,0,.65-.2c.17-.1.13-.12.28-.2s.4,0,.67-.17.14-.13.34-.23a3.49,3.49,0,0,1,.56-.14c.21-.07.21-.17.53-.45s.49-.28.78-.59a5,5,0,0,0,.45-.56l.11-.17c.18-.27.21-.29.22-.37a2.55,2.55,0,0,0,0-.28,1.24,1.24,0,0,1,.11-.22,1.26,1.26,0,0,0,.11-.34v-.25a1.37,1.37,0,0,0,.05-.76,1.27,1.27,0,0,0-.08-.25v-.51a.87.87,0,0,0-.11-.42c-.07-.12-.14-.14-.17-.25s0-.11,0-.2,0-.18-.39-.53l-.14-.14a7.44,7.44,0,0,1-.51-.7,1.82,1.82,0,0,0-.39-.39,3.21,3.21,0,0,0-.51-.25c-.43-.2-.37-.22-.59-.31-.44-.17-.53-.05-.73-.22s-.18-.22-.37-.28a.61.61,0,0,0-.2,0,.52.52,0,0,0,.11-.17c.05-.13,0-.2,0-.34s.16-.23.25-.53a.36.36,0,0,1,.06-.25,2.84,2.84,0,0,0,.2-.39.62.62,0,0,0,0-.31,1,1,0,0,0,.34-.79.71.71,0,0,0-.06-.2,1,1,0,0,0,.2-.73.48.48,0,0,1,0-.22c0-.12.07-.14.11-.25s0-.14,0-.48v-.25a.69.69,0,0,0,.11-.17,1.47,1.47,0,0,0,.05-.65v-.25a2.25,2.25,0,0,0,0-.93,3.57,3.57,0,0,1-.11-.48,3.12,3.12,0,0,1,0-.7V29.7a9,9,0,0,0-.12-1.4c-.06-.48-.12-1-.14-1.52a14.35,14.35,0,0,1,.08-2.16c0-.25.08-.69.19-1.57.15-1.14.22-1.7.28-2a18.86,18.86,0,0,1,.42-2.11,16,16,0,0,1,.45-1.68,2.09,2.09,0,0,0,.14-.65,2,2,0,0,0,0-.22.8.8,0,0,0,.62-.31V16a1.73,1.73,0,0,1,.28.14,3.29,3.29,0,0,1,.37.28,2,2,0,0,0,.28.22c.25.11.56,0,.59-.09a.62.62,0,0,1,0-.17v-.06h.34a.62.62,0,0,0,.22-.06Q206.74,16,206.68,15.86Zm-4.94,27.21c.28.08.49.09.62.28a.39.39,0,0,1,.08.28c0,.19-.28.27-.64.45s-.4.26-.76.42a6.21,6.21,0,0,1-1.4.4c-.69.15-1,.23-1.37.28a17.6,17.6,0,0,1-2.36.26c-.33,0-.89,0-2-.05a3.17,3.17,0,0,1-1-.17,2.85,2.85,0,0,1-.9-.53,1.47,1.47,0,0,1,.42-.37,1.92,1.92,0,0,1,.7-.2c.58-.1.48-.14,1.21-.28.53-.1.43-.06.84-.14a9.92,9.92,0,0,1,1.29-.28h.59a2.37,2.37,0,0,0,1-.42,5.43,5.43,0,0,1,1.74-.73l.37.17.62.22c.74.28.59.31.95.4Z" transform="translate(-1.43 0)"/></svg>