<?xml version="1.0" standalone="no"?>
<!DOCTYPE svg PUBLIC "-//W3C//DTD SVG 20010904//EN"
 "http://www.w3.org/TR/2001/REC-SVG-20010904/DTD/svg10.dtd">
<svg version="1.0" xmlns="http://www.w3.org/2000/svg"
 width="1250.000000pt" height="1250.000000pt" viewBox="0 0 1250.000000 1250.000000"
 preserveAspectRatio="xMidYMid meet">
<metadata>
Created by potrace 1.11, written by Peter Selinger 2001-2013
</metadata>
<g transform="translate(0.000000,1250.000000) scale(0.100000,-0.100000)"
fill="#000000" stroke="none">
<path d="M0 6250 l0 -6250 2130 0 c1172 0 2130 2 2130 4 0 2 -32 57 -71 122
-183 309 -380 779 -687 1644 -432 1218 -624 2265 -649 3540 -8 395 14 599 84
795 103 285 224 417 979 1067 338 291 431 395 609 676 168 267 280 391 460
512 149 100 294 246 404 410 164 242 340 387 670 554 417 211 712 285 1089
273 313 -9 530 -63 1142 -284 414 -149 596 -251 798 -447 257 -249 423 -542
522 -918 26 -100 62 -151 137 -195 41 -24 59 -27 187 -34 148 -8 200 -20 305
-73 74 -38 191 -66 275 -66 39 0 126 9 194 20 138 23 162 18 162 -29 0 -38
-51 -106 -105 -140 -25 -16 -71 -33 -102 -40 -45 -8 -219 -29 -264 -31 -10 0
-27 -51 -33 -100 -6 -55 -35 -83 -108 -105 -67 -19 -150 -19 -218 1 -43 13
-83 40 -193 131 -76 63 -171 138 -211 166 -89 64 -217 127 -223 110 -2 -6 -17
-30 -34 -52 -54 -75 -181 -140 -305 -156 l-51 -7 -6 -119 c-9 -156 -31 -253
-115 -505 -39 -115 -94 -308 -122 -429 -29 -121 -90 -368 -135 -550 -167 -663
-239 -1090 -434 -2585 -153 -1172 -175 -1414 -175 -1970 -1 -399 5 -519 50
-935 13 -126 24 -236 24 -242 0 -10 446 -13 2195 -13 l2195 0 0 6250 0 6250
-6250 0 -6250 0 0 -6250z"/>
</g>
</svg>
